<?xml version="1.0" encoding="UTF-8"?> <svg xmlns="http://www.w3.org/2000/svg" xmlns:xlink="http://www.w3.org/1999/xlink" width="110px" height="136px" viewBox="0 0 110 136" version="1.1"><title>Group 49</title><defs><polygon id="path-1" points="0 0.019738618 109.913127 0.019738618 109.913127 77.8461538 0 77.8461538"></polygon><polygon id="path-3" points="0.0689534188 0.0616942551 21.1076694 0.0616942551 21.1076694 20.2434874 0.0689534188 20.2434874"></polygon></defs><g id="Learts" stroke="none" stroke-width="1" fill="none" fill-rule="evenodd"><g id="01--Baby-Carrier" transform="translate(-326.000000, -3647.000000)"><g id="Group-20" transform="translate(0.000000, 3584.000000)"><g id="Group-18" transform="translate(302.000000, 63.000000)"><g id="Group-49" transform="translate(24.000000, 0.000000)"><path d="M63.3749058,85.7065317 C57.8285438,86.9597179 55.8253632,93.0357854 55.8253632,93.0357854 C55.8253632,93.0357854 52.2818349,88.70083 48.1426163,89.0762676 C42.7193121,89.5682142 38.6722786,96.3216241 41.5928862,103.402045 C46.3581475,114.954838 58.8065025,115.77326 62.5735989,114.757738 C66.8973609,113.592202 73.953458,98.906354 72.5993881,91.9241255 C71.7885418,87.7429369 68.575249,84.5315245 63.3749058,85.7065317" id="Fill-1" fill="#E5BA93"></path><path d="M98.5272343,82.1268472 C98.1457338,81.9803091 97.7167664,82.1673196 97.5686305,82.5443937 C95.2903032,88.3442509 90.4267894,95.50229 84.8761513,101.225127 C81.7168613,104.482374 78.4499324,107.187921 75.1662401,109.266582 C71.5208105,111.574122 67.9389937,113.04744 64.5202233,113.645717 C54.6460305,115.373472 45.3519407,114.341337 36.896111,110.578186 C31.0978151,107.997632 25.810804,104.235091 20.7331594,99.0757271 C20.4478281,98.7857909 19.9788931,98.7795979 19.6857094,99.0615966 C19.3925257,99.3435953 19.386085,99.8071966 19.6713281,100.097046 C24.8813156,105.390823 30.3167272,109.256115 36.2880394,111.913689 C42.2870554,114.583561 48.6881291,115.923077 55.4064729,115.923077 C58.4672115,115.923077 61.5944745,115.644916 64.7783803,115.08781 C68.3905477,114.455777 72.1542036,112.912154 75.9650619,110.499945 C79.3473056,108.359005 82.7051099,105.579491 85.945482,102.238683 C91.6222871,96.3857928 96.6051741,89.0424877 98.9495847,83.0745477 C99.0976323,82.6975609 98.9085584,82.2732109 98.5272343,82.1268472" id="Fill-3" fill="#FFFFFF"></path><path d="M59.2307692,71.0383052 C59.2307692,72.0103251 59.5526177,72.90432 60.0912194,73.6153846 L62.1386061,72.2848107 L65.477937,68.8426011 L66,67.906572 C65.2814851,67.2472834 64.3352787,66.8461538 63.2976281,66.8461538 C61.0516019,66.8461538 59.2307692,68.7230831 59.2307692,71.0383052" id="Fill-5" fill="#FFFFFF"></path><path d="M70.9439611,29.5798261 C68.9892673,27.2357779 66.4943487,25.1146098 63.5286427,23.2751266 C59.8430173,20.9890079 56.2478098,19.5277296 52.8427432,18.9318949 C49.6893543,18.3799887 46.585388,18.5504522 43.6170484,19.4386476 C38.6921716,20.9121768 34.0320523,24.2979951 28.9512705,30.0941044 C28.6834405,30.3995911 28.7147795,30.8637279 29.0213224,31.1307115 C29.3277776,31.3976077 29.7933857,31.3664552 30.0612157,31.060881 C34.9512421,25.482314 39.3933929,22.2364193 44.0407834,20.8459341 C49.842538,19.109884 55.9623352,20.3125793 62.7499956,24.5226254 C68.2431882,27.9298829 71.8984402,32.1873577 73.6140972,37.1770906 C75.0934389,41.479194 75.0304975,46.1330752 73.4322959,50.6355695 C73.2964935,51.0179748 73.4975196,51.437833 73.8811372,51.5732063 C73.9625133,51.601821 74.0454695,51.6153846 74.1270211,51.6153846 C74.4304916,51.6153846 74.714825,51.4271572 74.8218341,51.1256083 C76.5320486,46.3075641 76.5966578,41.3195813 75.0084636,36.7007029 C74.1361507,34.1637018 72.7686463,31.767937 70.9439611,29.5798261" id="Fill-7" fill="#FFFFFF"></path><path d="M49.0769231,56.6923077 C46.7403732,56.6923077 44.8461538,58.5865271 44.8461538,60.9230769 C44.8461538,63.2597178 46.7403732,65.1538462 49.0769231,65.1538462 C51.4134729,65.1538462 53.3076923,63.2597178 53.3076923,60.9230769 C53.3076923,58.5865271 51.4134729,56.6923077 49.0769231,56.6923077" id="Fill-9" fill="#FFFFFF"></path><path d="M63.0098452,54.2029868 C62.6446935,54.0594639 62.2330418,54.2410156 62.0904136,54.6083729 C61.9996118,54.8422462 61.9081337,55.0796927 61.815641,55.3196064 C60.7672777,58.0400746 59.5789916,61.123391 58.1230348,62.365072 C57.6578658,62.7618654 57.1239614,62.9422261 56.6580315,62.8601279 C56.2023317,62.7798164 55.7947382,62.4450432 55.4793837,61.8919656 C55.2842528,61.5498758 54.8503657,61.4316205 54.5104931,61.6279754 C54.1704513,61.8243303 54.0530177,62.2608541 54.2481486,62.6030289 C54.9202848,63.7815837 55.7965136,64.1585545 56.413188,64.2671962 C56.5673143,64.2943354 56.7237233,64.3076923 56.8812315,64.3076923 C57.6248931,64.3076923 58.3908747,64.0092465 59.04086,63.4548927 C60.7720967,61.9784025 62.02971,58.7151509 63.1391997,55.8361014 C63.2312697,55.5972937 63.3223251,55.3608681 63.4127042,55.1281859 C63.5553323,54.7607436 63.3749124,54.3465096 63.0098452,54.2029868" id="Fill-11" fill="#84511E"></path><path d="M52.604398,70.3258394 C51.778469,70.2292512 50.7849684,69.5494111 50.0733099,68.5939319 C49.5474003,67.8879405 48.7153175,66.4037074 49.0513127,64.3963516 C49.1244004,63.9599865 48.8327123,63.5465277 48.3997717,63.4728458 C47.9672099,63.3991638 47.5568962,63.693319 47.4839032,64.1296841 C47.1616356,66.0550544 47.6297946,67.9822381 48.8021328,69.556283 C49.7923199,70.8857077 51.1452946,71.7684594 52.4212054,71.9177321 C52.4523529,71.921359 52.4832163,71.9230769 52.5137958,71.9230769 C52.9118019,71.9230769 53.2552763,71.6223362 53.3023289,71.2141268 C53.3528844,70.7745166 53.0403681,70.3768059 52.604398,70.3258394" id="Fill-13" fill="#84511E"></path><path d="M69.324628,60.2338757 C68.766156,60.4329459 67.8188907,60.3632926 67.1633427,59.8420443 C66.7042307,59.4769829 66.490419,58.9569282 66.5276178,58.2963734 C66.5498066,57.9018139 66.2618419,57.563011 65.8842247,57.5398217 C65.5062812,57.5156093 65.1825045,57.817582 65.1602341,58.2122269 C65.0963598,59.3452642 65.5132152,60.3285939 66.3338738,60.9813052 C66.9753907,61.4913851 67.8399374,61.7692308 68.6698142,61.7692308 C69.0511023,61.7692308 69.4252117,61.7104902 69.7668537,61.5887462 C70.124811,61.4611197 70.3160261,61.0543686 70.1939062,60.6802702 C70.0718679,60.3060866 69.6826669,60.1062492 69.324628,60.2338757" id="Fill-15" fill="#84511E"></path><path d="M58.3767259,53.4728244 C57.5205987,53.6528886 56.5366078,53.3935156 55.8082596,52.7962487 C55.1359577,52.2447638 54.7533841,51.4782873 54.7310842,50.6377542 C54.7203159,50.2321064 54.3914145,49.9139959 54.0001075,49.9232749 C53.6071047,49.9343045 53.2971963,50.2721985 53.3079646,50.6780214 C53.3419655,51.960005 53.915402,53.1209245 54.922795,53.9471015 C55.755944,54.6304176 56.7925896,55 57.815584,55 C58.0998857,55 58.3833395,54.9714628 58.6607732,54.9130755 C59.0460601,54.8321035 59.2947499,54.4440507 59.2163189,54.0463688 C59.137888,53.6485993 58.7616736,53.3916774 58.3767259,53.4728244" id="Fill-17" fill="#84511E"></path><path d="M71.8215392,39.7181507 C70.7694137,38.7726264 69.4499348,37.9390063 67.7878624,37.1698078 C64.8360366,35.8035239 61.5252992,36.2261267 58.2134151,38.3920645 C55.5404096,40.1402268 52.8701385,43.036833 50.6944405,46.548166 C49.999198,47.6701916 49.3286532,48.8047681 48.6802483,49.9020432 C48.6274127,49.991391 48.5746653,50.0805632 48.5220061,50.1698233 C48.8601893,50.7069632 49.1121948,51.2878116 49.2544717,51.8348693 C49.4901591,51.4387725 49.7239059,51.04329 49.9568589,50.6490363 C50.601471,49.5583438 51.2679582,48.4305255 51.9550857,47.3215773 C54.0196438,43.9897298 56.5310552,41.2558454 59.0268541,39.6235368 C61.928314,37.7259934 64.6657984,37.3500832 67.163185,38.5059873 C70.507088,40.0535998 72.3918815,41.892602 73.2746507,44.4687673 C73.9479298,46.4339798 73.9997952,48.8688387 73.4288354,51.7058504 C72.7654354,55.0018008 71.2415824,58.9521491 68.8997036,63.4472732 C67.3859942,66.3527439 65.1396429,69.1971282 62.5743374,71.4564511 C59.9237363,73.7909034 57.0939882,75.3988126 54.3909043,76.1064857 C51.4809766,76.8682238 48.9214045,76.5506793 46.7834588,75.16298 C45.8150412,74.5342981 44.7262219,74.4834805 43.6346682,75.0157932 C41.3323058,76.1386087 39.3615994,79.6726736 38.113744,82.4397342 C36.7648042,85.4308665 35.6827768,88.8576789 35.540941,90.587761 C35.5077754,90.9934246 35.8112053,91.3490604 36.2188068,91.3821489 C36.6268495,91.4151496 36.9839088,91.1131401 37.0170744,90.7076521 C37.1257446,89.3825313 38.0205981,86.2459676 39.4650654,83.0430512 C41.0641585,79.4970499 42.8214938,77.0535898 44.286425,76.3391585 C44.9090737,76.0354814 45.4453683,76.0539126 45.9742536,76.3972609 C47.5899295,77.4460003 49.4506426,77.9762944 51.4650994,77.9762066 C52.5277214,77.9762066 53.6333881,77.8285809 54.7677219,77.5316619 C57.6937914,76.7656231 60.7326769,75.0465119 63.5558978,72.5599577 C66.2543067,70.1833768 68.6190309,67.1879439 70.2145075,64.1254563 C74.8259359,55.2743203 76.2853983,48.6890022 74.6764262,43.9932405 C74.1068777,42.331003 73.1729488,40.932596 71.8215392,39.7181507" id="Fill-19" fill="#84511E"></path><g id="Group-23" transform="translate(0.000000, 57.538462)"><mask id="mask-2" fill="white"><use xlink:href="#path-1"></use></mask><g id="Clip-22"></g><path d="M108.300113,23.1582544 C107.929193,23.094746 107.197033,23.1163846 106.459329,23.9782339 C105.968993,24.5509529 105.568153,25.4060291 105.300193,26.4507509 C105.198817,26.8457871 105.437033,27.2482122 105.832329,27.3494561 C106.227625,27.450876 106.630049,27.2125876 106.731425,26.8176394 C107.185417,25.047409 107.890297,24.5864894 108.049929,24.6138455 C108.163185,24.633373 108.527681,25.1021212 108.413897,26.3725529 C108.162569,29.1777412 107.248689,32.4310947 103.320985,40.7591378 C99.9794488,47.8456887 95.4912728,54.4086033 90.3417768,59.738294 C86.2716008,63.9509584 81.7688168,67.4215775 76.9585608,70.053745 C71.1811848,73.2152665 64.8753688,75.2095354 58.2163208,75.9812239 C48.9314408,77.05726 39.9490168,75.9178914 31.5180888,72.5948722 C24.1798568,69.7026017 17.4890408,65.1934182 12.1688248,59.5548938 C8.3399448,55.4969541 5.3460088,50.9715856 3.5105048,46.4681197 C1.7064168,42.0414443 1.0865448,37.8034469 1.7178568,34.2121444 C2.6364008,28.9870401 4.6028488,24.9757202 7.7294888,21.9487803 C10.6949128,19.0780604 14.8450808,16.969969 20.4173288,15.5039983 C24.9191448,14.3196813 28.7424808,12.908071 32.1057528,11.1886826 C35.1290808,9.64310654 37.7158408,7.87859372 40.0136088,5.79451585 C41.7984248,4.17566769 43.2944248,2.45513575 44.6171528,0.686312803 C44.1209208,0.605651873 43.6693048,0.369738444 43.2721608,0.019738618 C38.9559368,5.70655409 32.7711208,10.7267074 20.0412168,14.0757633 C14.2172888,15.6078812 9.8538968,17.8361284 6.7015608,20.8878735 C3.3431288,24.139028 1.2369368,28.4138813 0.2625128,33.9565275 C-1.1205832,41.8245306 3.0297608,52.0214972 11.0939048,60.5682132 C16.5620488,66.3636614 23.4371368,70.9974867 30.9760088,73.9688348 C35.1158808,75.6006134 39.4570088,76.7324173 43.8787448,77.3328442 C46.3987128,77.6750155 48.9589848,77.846189 51.5398488,77.846189 C53.8109528,77.846189 56.0978968,77.7135427 58.3864248,77.448338 C65.2355528,76.6545711 71.7228248,74.6025993 77.6681048,71.3492458 C82.6092168,68.6454773 87.2308888,65.0841697 91.4046408,60.7643679 C96.6651048,55.3197991 101.247881,48.6198401 104.657529,41.3887681 C108.678689,32.8626351 109.619497,29.4747881 109.885609,26.5043196 C110.085809,24.2699151 109.156617,23.3053264 108.300113,23.1582544" id="Fill-21" fill="#84511E" mask="url(#mask-2)"></path></g><path d="M46.7980359,47.6874581 C45.5519198,47.1023989 44.2182734,47.3708167 43.0428323,48.4426019 C41.1442867,50.1736227 41.0979766,53.8202967 42.1500077,56.3459742 C42.9150833,58.1826917 44.1654549,59.2307692 45.5527542,59.2307692 C45.6926857,59.2307692 45.8341191,59.2200828 45.9764704,59.1985304 C46.3595506,59.1403388 46.6263132,58.75904 46.5723265,58.3466699 C46.5183398,57.9343895 46.1645476,57.6466644 45.7808834,57.7054846 C44.4827832,57.9025997 43.7033556,56.3889893 43.4284992,55.729215 C42.6030119,53.7473776 42.614944,50.808881 43.9484235,49.5931434 C44.7271,48.8831699 45.475988,48.7119177 46.2379762,49.0695985 C47.4791693,49.6521432 48.4679517,51.5389702 48.5226894,52.8366969 C48.5402955,53.2526592 48.8685546,53.5751376 49.2543049,53.5556506 C49.6408061,53.5367025 49.9399441,53.1841403 49.9223379,52.7681781 C49.8471571,50.9874969 48.5737556,48.5209091 46.7980359,47.6874581" id="Fill-24" fill="#84511E"></path><path d="M75.9367693,33.7959626 C75.012385,31.8044634 73.7557946,29.8881719 72.201614,28.1005298 C70.2358404,25.8394332 67.8388699,23.8214786 65.0771969,22.1026736 C62.4372091,20.4595187 59.5987984,19.1703707 56.6409983,18.2708869 C53.6999764,17.3764465 50.8243889,16.9230769 48.093358,16.9230769 C48.079494,16.9230769 48.0655417,16.9230769 48.0516777,16.9230769 C45.1729112,16.9279433 42.614518,17.4403288 40.4475839,18.4458996 C37.465853,19.8295438 34.8890921,21.7173449 32.7887406,24.0567459 C30.8661485,26.198218 29.3345741,28.724665 28.2365808,31.5658339 C26.3130173,36.5431662 25.7490087,42.5304048 26.6484025,48.4245629 C27.2980676,52.682025 28.6873815,56.6873202 30.5603458,59.702617 C32.5688594,62.9360161 34.9535553,64.8188623 37.4565809,65.1473871 C37.489254,65.1517226 37.5217505,65.1538462 37.5538055,65.1538462 C37.9203626,65.1538462 38.2390579,64.8814174 38.287891,64.5074141 C38.3411393,64.1006733 38.0552054,63.7277317 37.6491757,63.6743785 C35.630507,63.4093821 33.5599145,61.7200408 31.8191438,58.9176259 C30.0498504,56.0692901 28.7340952,52.2629855 28.1140125,48.1999131 C25.7612832,32.7811014 33.2643552,23.4165074 41.0707574,19.793975 C44.963715,17.9874867 50.4819394,17.9504137 56.2103313,19.6924889 C62.0116638,21.4565955 67.4326636,24.8768635 71.0835753,29.0763715 C72.5461829,30.7588113 73.726742,32.557425 74.5923147,34.4223983 C75.5085748,36.396644 76.0756742,38.456007 76.2778059,40.5432411 C76.7277236,45.1901021 75.3964266,49.9768492 72.3210033,54.7706748 C72.0996209,55.1157453 72.199318,55.5753084 72.5437103,55.7972153 C72.8881026,56.0191222 73.3468508,55.9191402 73.5682333,55.5739812 C76.8283921,50.4925084 78.2365151,45.3871462 77.7535711,40.3998157 C77.5352794,38.1448242 76.9240272,35.9230126 75.9367693,33.7959626" id="Fill-26" fill="#84511E"></path><g id="Group-30" transform="translate(29.615385, 0.000000)"><mask id="mask-4" fill="white"><use xlink:href="#path-3"></use></mask><g id="Clip-29"></g><path d="M17.9526907,1.87170944 C15.901113,0.266887634 13.0625259,-0.274565141 9.51575981,0.262431938 C6.35036735,0.741676339 3.32018681,2.69344265 1.60784772,5.35597819 C0.0481616954,7.78090516 -0.335025118,10.5670863 0.499731554,13.4130765 C1.01389953,15.1660502 2.0686562,16.7371116 3.55011617,17.9563443 C4.89912716,19.0664981 6.54489639,19.8518146 8.30964521,20.2272927 C8.36084615,20.2382606 8.41196075,20.2434874 8.46229827,20.2434874 C8.79678807,20.2434874 9.09743171,20.012391 9.17039089,19.6747864 C9.25431554,19.2862839 9.00504553,18.9038652 8.61356986,18.820578 C6.02623862,18.2699568 2.90168603,16.454689 1.89174097,13.01095 C0.988946625,9.93309211 1.9036562,7.57020214 2.82993564,6.12998403 C4.32408791,3.80668121 6.9697865,2.10331996 9.73437834,1.68474158 C12.8685149,1.21029562 15.331686,1.65329464 17.0552496,3.00165686 C19.0519137,4.56354976 19.5304223,6.9139295 19.6379184,8.17600545 C19.8319294,10.4533803 18.6364349,13.9715809 16.9161523,16.1857192 C16.6717174,16.5003599 16.7306028,16.9520989 17.0476515,17.1946773 C17.3647002,17.4372557 17.81981,17.3788175 18.0642449,17.0641768 C20.0092763,14.5608467 21.3068273,10.6876471 21.0825102,8.0547591 C20.9551554,6.56038715 20.3793391,3.76992171 17.9526907,1.87170944" id="Fill-28" fill="#84511E" mask="url(#mask-4)"></path></g><path d="M89.3110456,83.223295 C88.5062782,83.9360856 86.9583187,84.3095722 85.5467169,84.1314702 C84.7801983,84.0347338 83.375543,83.6821238 82.5801233,82.406962 C82.3868214,82.0970996 81.9482471,81.9856042 81.6009211,82.1580474 C81.2534235,82.3304141 81.1283861,82.7213362 81.321688,83.0311986 C82.1356317,84.3359549 83.5644712,85.1781352 85.3450105,85.4028084 C85.6582043,85.4423441 85.973199,85.4615385 86.2860498,85.4615385 C87.858365,85.4615385 89.3760513,84.9755623 90.3258381,84.1343761 C90.607987,83.8843908 90.6095306,83.477945 90.3292685,83.2263538 C90.0489206,82.9747627 89.5931087,82.9734627 89.3110456,83.223295" id="Fill-31" fill="#84511E"></path><path d="M90.4536038,79.1108479 C90.2679002,79.2033186 89.8855024,79.1949319 89.5914843,79.020257 C89.3708382,78.8891786 89.2666168,78.7085751 89.2729079,78.4681803 C89.2816246,78.1331457 89.003903,77.8546492 88.6525822,77.8463348 C88.3012613,77.8382373 88.0092898,78.1029247 88.0006489,78.4380315 C87.9832155,79.105787 88.3177851,79.6935796 88.9185552,80.050593 C89.2903413,80.2715394 89.7265553,80.3846154 90.147155,80.3846154 C90.4663377,80.3845431 90.7766522,80.3194015 91.0426252,80.1869494 C91.3541525,80.0317952 91.4748977,79.6650937 91.3122365,79.3679439 C91.1494995,79.0707219 90.7650552,78.9556938 90.4536038,79.1108479" id="Fill-33" fill="#84511E"></path><path d="M83.7543929,73.8569057 C83.4309537,73.9625169 82.9884234,73.8472282 82.7469929,73.5940979 C82.5617403,73.3999584 82.5147536,73.1496052 82.6034182,72.8287323 C82.7068997,72.4543384 82.5050077,72.0616836 82.152489,71.9518647 C81.799891,71.8419618 81.4303367,72.056382 81.3269344,72.4307758 C81.1007963,73.2488208 81.2778084,74.039348 81.8124102,74.5997186 C82.2445606,75.0527948 82.8789992,75.3076923 83.4979076,75.3076923 C83.7191331,75.3076923 83.9383778,75.2751253 84.1456578,75.2073827 C84.4967503,75.092683 84.6938089,74.6972511 84.585811,74.3243721 C84.4776545,73.9514088 84.1055646,73.7420378 83.7543929,73.8569057" id="Fill-35" fill="#84511E"></path><path d="M98.9922714,80.4861945 C97.7290262,79.9655649 96.6852026,81.5813853 96.239367,82.2713369 C95.4920591,83.4280751 94.6359697,85.1112877 93.6446339,87.0602615 C93.437604,87.4672718 93.2244668,87.886326 93.0048682,88.3152986 C91.7730448,90.7215833 88.3475368,95.3306476 83.737648,99.7640139 C79.663169,103.682418 73.1756723,108.882338 65.4076705,111.403039 C61.6889218,112.609724 57.5034486,113.00469 52.9677329,112.576781 C48.87564,112.190758 44.6164362,111.154193 40.3083738,109.495865 C32.5575434,106.512273 25.4002754,101.748234 21.62957,97.0629212 C21.3722653,96.7430514 20.9043901,96.6924851 20.5847728,96.9500989 C20.2651555,97.2075356 20.2146151,97.675562 20.4720084,97.9953432 C24.3973444,102.872914 31.7937722,107.811501 39.7746456,110.883649 C44.2092804,112.590596 48.6011639,113.658333 52.8281493,114.057197 C54.0562551,114.17303 55.2600201,114.230769 56.4387362,114.230769 C59.8081275,114.230769 62.9674796,113.758049 65.8661634,112.81748 C73.9027994,110.209638 80.5806857,104.862536 84.7674866,100.836091 C89.5007614,96.2841464 93.0411582,91.5061143 94.3275935,88.9931178 C94.5478117,88.5630825 94.7615685,88.1427 94.9692179,87.734627 C95.8346896,86.0329058 96.5821745,84.5632938 97.2328272,83.4868773 C97.8066513,82.5374522 98.1631782,82.1449653 98.3536563,81.9833478 C98.3730405,82.3753034 98.2718711,83.4050501 97.3129307,85.780694 C96.4715343,87.8652493 95.3653097,89.9959431 94.6422541,91.1827908 C94.4285858,91.53339 94.5394915,91.9908782 94.8899111,92.2045674 C95.2404191,92.4182567 95.6975843,92.3072941 95.9112525,91.956695 C96.8002684,90.4975328 97.866397,88.3532012 98.6274243,86.4939362 C100.184176,82.6906567 99.8485377,81.6644522 99.7381631,81.3271366 C99.5714947,80.8175767 99.2405479,80.588567 98.9922714,80.4861945" id="Fill-37" fill="#84511E"></path><path d="M103.972163,73.0748107 C103.592089,72.7451004 103.101668,72.6786697 102.625948,72.8927143 C101.34243,73.4708613 101.153474,75.1802321 100.934597,77.1594892 C100.776081,78.5931814 100.596465,80.2182014 100.02925,81.8266589 C98.6941912,85.6110414 96.2325731,89.5553464 94.9688589,90.9476777 C94.6927322,91.251956 94.7044933,91.7328099 94.9952349,92.0218833 C95.1356764,92.1615328 95.3155522,92.2307692 95.4950822,92.2307692 C95.687238,92.2307692 95.8788749,92.1514867 96.0216514,91.9942793 C97.5703131,90.2879856 100.063669,86.1166937 101.391464,82.3529464 C102.018954,80.5736151 102.217423,78.7774499 102.377062,77.3341642 C102.527276,75.9746863 102.669793,74.6859834 103.110316,74.3431499 C103.26174,74.6415454 103.501459,75.5556474 103.467819,77.5916513 C103.438762,79.3535151 103.209248,81.4388444 102.868867,83.0339072 C102.095401,86.65891 100.73829,88.6659523 99.3868861,90.294864 C99.1239906,90.6118131 99.1563337,91.0916714 99.4590958,91.3667165 C99.7619445,91.6420332 100.220455,91.6080033 100.48335,91.2911447 C102.50237,88.8574612 103.60411,86.5611645 104.285908,83.365156 C104.65033,81.6573238 104.893508,79.4346078 104.920489,77.5643188 C104.972723,73.9428456 104.219665,73.2894889 103.972163,73.0748107" id="Fill-39" fill="#84511E"></path><path d="M95.3052634,56.7613048 C92.3951095,56.3175995 89.8304086,58.0480502 89.0684526,60.9690095 C88.6351668,62.6302765 88.837753,64.1286219 89.6544874,65.3019855 C90.6014801,66.6625668 92.3199703,67.4881171 94.6242397,67.6895507 C94.6451969,67.69136 94.6660689,67.6923077 94.6866001,67.6923077 C95.053777,67.6923077 95.3661756,67.4079917 95.3983781,67.0312299 C95.4323697,66.6331875 95.1409283,66.2827034 94.7474271,66.248327 C92.877125,66.0848022 91.5204447,65.4696457 90.8242568,64.4692842 C90.2581569,63.6561404 90.1293468,62.573241 90.4515424,61.3380172 C91.0298248,59.1212139 92.8947598,57.8569553 95.0921134,58.191759 C96.0506922,58.3378802 96.8678525,58.8693788 97.2779661,59.6135113 C97.6589441,60.3047439 97.6609887,61.141236 97.2840147,62.032696 C97.0263945,62.6419938 96.0702011,63.1329128 95.1103444,62.8637603 C94.6236433,62.7272024 94.0733039,62.3469082 94.2146372,61.3100164 C94.2686489,60.9143863 93.995183,60.5492556 93.6038116,60.4947187 C93.212355,60.4399232 92.8515675,60.7167436 92.7975558,61.1123737 C92.5453879,62.9613754 93.6293692,63.949589 94.7279182,64.2577703 C95.4260655,64.4536037 96.2291691,64.4117317 96.9309797,64.1428377 C97.7132113,63.8431859 98.3056355,63.2958345 98.5992066,62.6015865 C99.3037433,60.9357531 98.9490044,59.6741654 98.5273899,58.909183 C97.9031892,57.7766576 96.6985763,56.9736803 95.3052634,56.7613048" id="Fill-41" fill="#84511E"></path><path d="M105.715356,75.329545 C105.154043,75.2446857 104.761042,75.423101 104.529977,75.5877245 C103.755268,76.1397489 103.57803,77.3295355 103.309715,79.1302912 C102.896221,81.905435 102.271336,86.0992922 99.136069,90.4655032 C98.8957144,90.8002844 98.9821473,91.2597191 99.3293364,91.4916327 C99.6764343,91.7235462 100.152863,91.6401803 100.393309,91.3052234 C103.733774,86.6532492 104.389444,82.252339 104.82343,79.3400675 C104.937186,78.5772126 105.035277,77.9182796 105.160145,77.4365319 C105.284922,76.9553993 105.396857,76.8150213 105.429371,76.7824304 C105.434016,76.7818155 105.441121,76.782694 105.449591,76.7833089 C105.499137,76.832327 105.701512,77.0775931 105.828111,77.9028187 C106.07138,79.4876488 105.868822,82.0596926 105.299585,84.6150457 C104.676795,87.411009 103.715558,89.7512272 102.662333,91.0357996 C102.400393,91.3553835 102.456588,91.8190348 102.787747,92.0717678 C102.92819,92.1788521 103.0955,92.2307692 103.261626,92.2307692 C103.487408,92.2307692 103.711004,92.1348413 103.861829,91.950716 C106.727505,88.4555861 108.252241,79.5152325 107.045003,76.5401511 C106.684334,75.651325 106.12293,75.3912129 105.715356,75.329545" id="Fill-43" fill="#84511E"></path><path d="M78.7081235,84.8579234 C77.5455521,84.9874764 75.0791986,84.4744366 71.9545718,82.6027021 C69.4287379,81.0897817 67.9286085,79.051782 66.8332295,77.5636191 C65.7896189,76.1459981 65.0356095,75.1216143 63.8866006,75.3361227 C63.4863711,75.4108191 63.1597165,75.6438957 62.9666489,75.9925355 C62.6961948,76.480733 62.6820117,77.183015 62.9269362,78.179165 C62.8564639,78.1380438 62.7851938,78.0970922 62.7133919,78.0566493 C61.5829983,77.4201612 59.9840304,76.682354 59.1535209,77.6188995 C58.3212386,78.5580734 59.1598147,80.0104566 59.7820985,80.8756972 C59.2981886,80.7638645 58.8937928,80.7553859 58.5518027,80.8462765 C58.1522823,80.9523437 57.8379492,81.2024622 57.6667769,81.5504237 C57.4542076,81.9824929 57.5053554,82.5274122 57.8231456,83.2164675 C58.5629719,84.8205328 60.6848531,87.1318825 63.3606733,89.2485636 C66.5725263,91.7891744 70.2002989,93.738488 73.5757894,94.7372665 C73.6490983,94.7589717 73.7231164,94.7692308 73.7959821,94.7692308 C74.113595,94.7692308 74.4078945,94.5731209 74.506733,94.2676371 C74.6281759,93.8921202 74.4083377,93.4934567 74.015643,93.3772151 C69.1416186,91.935091 65.1916237,88.9474887 63.2708766,87.2950106 C61.9529114,86.161253 60.7953041,84.9707735 60.0112443,83.9429983 C59.2863103,82.9929718 59.0720567,82.435589 59.0334964,82.2085322 C59.2116717,82.2040386 59.6849442,82.2560124 60.6981498,82.7373422 C61.4860213,83.1117569 62.1621123,83.5419608 62.1685833,83.5461153 C62.48726,83.7499407 62.9153238,83.68881 63.1580322,83.4052011 C63.4007406,83.1215921 63.3785795,82.7080062 63.1067958,82.4494939 C63.0982859,82.4414392 62.2447288,81.6269854 61.4718382,80.6711935 C60.4253909,79.3772752 60.2978316,78.7922522 60.291006,78.6021621 C60.4940017,78.6194584 61.0473201,78.7410415 62.2245179,79.4372189 C63.1046683,79.9577198 63.8585004,80.5209528 63.8658578,80.5264639 C64.1332094,80.7269826 64.5084412,80.7287632 64.7780088,80.5309575 C65.0475765,80.3331519 65.1427806,79.9857839 65.009548,79.6868287 C65.0066228,79.6803849 64.7165783,79.0269397 64.493283,78.2814169 C64.229034,77.3991343 64.2268179,76.9657086 64.2521702,76.7792643 C64.3257451,76.8258966 64.4451491,76.920009 64.6199559,77.1091664 C64.9067205,77.419483 65.2355027,77.8660505 65.6161418,78.3832448 C66.7844751,79.9703529 68.3844181,82.1439254 71.1645728,83.8092061 C74.092675,85.5631729 76.9768982,86.4843722 78.8801823,86.2719834 C79.2883899,86.2266229 79.5809164,85.8732351 79.533403,85.4827111 C79.4858896,85.0922718 79.1161538,84.8129021 78.7081235,84.8579234" id="Fill-45" fill="#84511E"></path><path d="M100.997879,68.5022166 C96.9124777,65.7050109 92.6852254,65.7526519 89.858221,66.2851453 C85.5908958,67.0890113 81.5173746,69.5862426 79.4803924,72.6472397 C77.518414,75.5958111 76.7140294,78.4771854 77.0898462,81.2111569 C77.4758586,84.0200791 79.0905678,86.5500473 81.8890246,88.730591 C84.0654642,90.4264546 87.0150811,91.3846154 90.0305701,91.3846154 C90.1490158,91.3846154 90.2676388,91.3831508 90.3862618,91.3802217 C90.473323,91.378068 90.5601181,91.3745358 90.6469133,91.3707452 L91.6716104,89.8296071 C91.2357728,89.8874138 90.7940838,89.9229938 90.3478734,89.9341071 C87.5558885,90.0050086 84.8121331,89.1541908 82.8202772,87.6020255 C80.3305239,85.6620989 78.8989801,83.4474397 78.5652753,81.0196454 C78.2377765,78.6366491 78.9662707,76.0839372 80.7304555,73.4326697 C81.5747357,72.1640241 82.9193071,70.9142455 84.5166394,69.9136127 C86.2323288,68.838891 88.1773738,68.0751708 90.14148,67.7052426 C90.9378854,67.5551692 91.8571694,67.4477401 92.8570425,67.4477401 C95.0497064,67.4477401 97.6286486,67.9648988 100.140477,69.6847121 C102.127634,71.0452797 103.235314,72.8379759 103.432576,75.0129199 C103.437098,75.0632315 103.440378,75.1136293 103.443924,75.164027 L103.613525,75.987966 L104.923077,74.9862134 C104.920417,74.9527871 104.918467,74.9193609 104.915452,74.8859347 C104.677852,72.2672319 103.359877,70.1194252 100.997879,68.5022166" id="Fill-47" fill="#84511E"></path></g></g></g></g></g></svg> 