<?xml version="1.0" encoding="UTF-8"?> <svg xmlns="http://www.w3.org/2000/svg" xmlns:xlink="http://www.w3.org/1999/xlink" width="111px" height="109px" viewBox="0 0 111 109" version="1.1"><title>Group 51</title><defs><polygon id="path-1" points="0.0339696631 0.0639358035 88.4888378 0.0639358035 88.4888378 66.7725753 0.0339696631 66.7725753"></polygon><polygon id="path-3" points="0.00485618729 0.019958194 43.5256999 0.019958194 43.5256999 34.7749181 0.00485618729 34.7749181"></polygon></defs><g id="Learts" stroke="none" stroke-width="1" fill="none" fill-rule="evenodd"><g id="01--Baby-Carrier" transform="translate(-616.000000, -3665.000000)"><g id="Group-20" transform="translate(0.000000, 3584.000000)"><g id="Group-18-Copy-4" transform="translate(539.000000, 81.000000)"><g id="Group-51" transform="translate(77.000000, 0.000000)"><path d="M81.0778729,1.40193896 C68.6582659,-2.32389716 56.5846622,10.7120226 56.5846622,10.7120226 L58.764796,13.3282015 C58.764796,13.3282015 68.2485251,5.04361957 71.9548629,9.07683027 C75.6611087,13.1102249 74.5710418,20.7407851 78.4952642,20.6317048 C81.2019448,20.5566547 81.6565686,18.4515711 81.6565686,18.4515711 C81.6565686,18.4515711 85.0358495,26.1911196 91.5762508,25.973143 C98.1167441,25.7550744 98.3348918,24.1200661 98.3348918,24.1200661 C98.3348918,24.1200661 98.5192191,6.6343888 81.0778729,1.40193896" id="Fill-1" fill="#FFFFFF"></path><path d="M87.346337,23.4030334 C82.6007015,19.2415201 80.5829925,14.5956756 79.0642383,10.5677993 C78.9084356,10.1545635 78.4472818,9.9460602 78.034138,10.1018629 C77.6209941,10.2575736 77.4123988,10.7188194 77.5682015,11.1318712 C79.1551998,15.3409348 81.2690209,20.2002492 86.2921396,24.6051237 C86.4438955,24.738301 86.6317968,24.803602 86.8189624,24.803602 C87.0411697,24.803602 87.2622734,24.7114448 87.4202834,24.5311773 C87.7113788,24.1991538 87.6782684,23.6941288 87.346337,23.4030334" id="Fill-3" fill="#E0D4C6"></path><path d="M94.4061296,27.3128804 C90.953638,25.7896196 86.8933871,18.882061 86.1142818,14.5054222 C86.0368403,14.0707567 85.6221329,13.7812249 85.1870995,13.8584824 C84.7524339,13.9359239 84.4627182,14.3509072 84.5400677,14.7856647 C84.9669156,17.1832232 86.2434122,20.2259741 87.9545744,22.9250209 C89.0357199,24.6303888 91.2277182,27.658148 93.7607533,28.7756229 C93.8657868,28.8219774 93.9752349,28.8438671 94.0830276,28.8438671 C94.3901263,28.8438671 94.6829691,28.6659908 94.8148587,28.3669858 C94.9931028,27.9629473 94.8100761,27.4910326 94.4061296,27.3128804" id="Fill-5" fill="#E0D4C6"></path><path d="M91.3972433,15.7638645 C91.1771513,15.3811639 90.6884975,15.2490903 90.3057048,15.4693662 C89.9230042,15.6893662 89.7911145,16.178112 90.0112065,16.5609047 C92.4808721,20.8558712 94.0698938,26.7214649 94.2674523,29.3043495 C94.299551,29.7237475 94.6498771,30.0428027 95.0636647,30.0428027 C95.0841747,30.0428027 95.1047768,30.0419749 95.1255627,30.0405033 C95.5657467,30.0067492 95.8952868,29.6226689 95.8616246,29.182393 C95.6217584,26.0458294 93.8466747,20.0236973 91.3972433,15.7638645" id="Fill-7" fill="#E0D4C6"></path><path d="M84.6189808,3.29636706 C80.1893654,1.18962793 74.4284373,0.953808528 68.8130109,2.64979515 C63.1223503,4.36822324 58.4751263,7.8316597 56.062944,12.1518269 L57.4590059,12.9313002 C59.6709624,8.96973662 63.9777935,5.78010452 69.2752684,4.18032191 C74.5148921,2.59801421 79.85725,2.80210284 83.9322166,4.74025502 C89.0219239,7.1609908 92.7785711,10.9341012 94.7961881,15.6518687 C96.3274507,19.2324791 96.8288888,23.409444 96.1376179,26.8251463 L97.704658,27.142362 C98.0662968,25.3554139 98.650143,20.597362 96.2662885,15.0232316 C94.0932366,9.94189381 90.0656363,5.88688545 84.6189808,3.29636706" id="Fill-9" fill="#E0D4C6"></path><path d="M43.3636739,37.4952383 C39.8697943,38.7592266 35.8294097,37.7983821 31.5518261,36.7808821 C26.7992007,35.6505309 21.8847023,34.481459 16.6981472,35.8647366 C10.1584816,37.6086413 5.06445151,42.8412751 3.4041505,49.520464 C2.59175084,52.7883654 2.66045485,56.2175878 3.60281271,59.4372952 C4.63171739,62.9527885 6.6244097,66.0999289 9.52561371,68.79125 C9.67948495,68.9340844 9.8745602,69.0047199 10.0691756,69.0047199 C10.2838411,69.0047199 10.4978629,68.9187249 10.655413,68.7488503 C10.9557057,68.4252885 10.9366672,67.9194356 10.6130134,67.619143 C7.92629097,65.12676 6.08397492,62.2227968 5.13729431,58.9881898 C4.27440134,56.0400794 4.21167559,52.8994691 4.95573913,49.9061079 C6.47568896,43.7920025 11.1329381,39.0035075 17.1101873,37.4096112 C21.9070518,36.1307232 26.6220602,37.2519691 31.1819097,38.3364256 C35.6984398,39.4105811 39.9645268,40.425138 43.9076037,38.9988169 C44.3227709,38.8485326 44.5376204,38.390138 44.3873361,37.9750627 C44.2372358,37.5598035 43.7788411,37.3453219 43.3636739,37.4952383" id="Fill-11" fill="#FFFFFF"></path><path d="M72.8284799,46.1702742 C72.8284799,46.7205502 72.8912057,47.2562943 73.0099431,47.7705167 L78.3889064,45.2255251 L85.027811,41.2634097 C83.7382542,39.9200485 81.9243579,39.0836438 79.9150184,39.0836438 C76.0012809,39.0836438 72.8284799,42.2563528 72.8284799,46.1702742" id="Fill-13" fill="#E5BA93"></path><path d="M57.8216196,22.2229247 C53.9077901,22.2229247 51.7168955,24.5962943 51.7168955,28.5099398 C51.7168955,32.4238612 53.9077901,36.3960936 57.8216196,36.3960936 C61.735449,36.3960936 64.90825,33.2232926 64.90825,29.3095552 C64.90825,25.3956338 61.735449,22.2229247 57.8216196,22.2229247" id="Fill-15" fill="#E5BA93"></path><path d="M102.717632,26.3075577 C101.663619,25.9240293 100.671687,26.3093972 99.7697057,27.4525326 C99.0753997,28.3327166 98.4093294,29.6360694 97.5660268,31.2862533 C96.8885518,32.6122316 95.1992793,34.2498152 95.9521722,35.0750911 C96.410107,35.5769891 95.0227826,38.6706012 94.1110518,39.8232099 C90.8224565,43.9807684 84.495709,48.2707684 79.6646304,50.9661363 C79.2789866,51.1812617 79.1408428,51.66826 79.3559682,52.0539038 C79.5710936,52.4395477 80.0581839,52.5775075 80.4435518,52.3624741 C91.8409682,46.003536 96.3160184,37.2462115 98.9898645,32.0138537 C99.7932508,30.4415711 100.427774,29.1998403 101.024957,28.4429925 C101.668585,27.6272818 101.983134,27.7418804 102.171035,27.8101246 C102.245809,27.8372567 102.473443,27.9200326 102.551436,28.5532684 C102.812732,30.6738955 100.944296,35.6519473 97.901913,40.9405008 C94.687908,46.5275995 90.9389866,51.1819975 88.1180753,53.0876831 C87.7522057,53.3347232 87.6559097,53.8317467 87.9030418,54.1975242 C88.0575569,54.4262617 88.3095635,54.5495059 88.5662609,54.5495059 C88.7202241,54.5495059 88.8758428,54.5051747 89.0130669,54.4124657 C92.068602,52.3484022 95.9096806,47.6101246 99.2877659,41.7377249 C101.875433,37.2395895 104.508443,31.3624992 104.138251,28.3576413 C103.974814,27.0309273 103.27545,26.5105426 102.717632,26.3075577" id="Fill-17" fill="#84511E"></path><path d="M107.335517,30.749663 C105.767649,30.1866948 104.48591,31.4877483 103.658059,32.5152734 C102.633293,33.7874473 101.543594,35.6525727 100.281997,37.8121965 C97.5054164,42.5649139 93.7027826,49.0740443 88.0990368,53.1009089 C87.7404331,53.3585259 87.6587609,53.8580326 87.916286,54.2165443 C88.173995,54.57524 88.6736856,54.6569122 89.0320134,54.3992952 C94.9118629,50.1740443 98.8135518,43.4953152 101.662607,38.6187099 C102.891829,36.514546 103.953385,34.6973386 104.903192,33.5184256 C105.70897,32.5182166 106.345793,32.0928403 106.795082,32.2544373 C106.937824,32.3056664 107.096662,32.3992032 107.192866,32.7036346 C107.515876,33.7264691 106.898644,35.9887349 105.499087,38.910357 C104.146161,41.7344875 102.076303,45.1691363 99.6706505,48.5818955 C95.2374482,54.87075 90.477189,57.6168871 90.4303746,57.6434674 C90.0459264,57.8607082 89.9103579,58.3482584 90.1274147,58.7327065 C90.2744799,58.9929908 90.5452492,59.1391363 90.824204,59.1391363 C90.9574732,59.1391363 91.092398,59.105842 91.2166538,59.0356664 C91.2692625,59.005959 92.525709,58.2904992 94.3605753,56.7531664 C97.4013027,54.2054156 99.6371722,51.4042784 100.977498,49.5030075 C103.432908,46.0197048 105.550776,42.5031998 106.940952,39.6010761 C108.606587,36.1242115 109.187582,33.7104657 108.717415,32.2220627 C108.489965,31.5018202 108.012072,30.9927483 107.335517,30.749663" id="Fill-19" fill="#84511E"></path><g id="Group-23" transform="translate(21.429766, 41.735619)"><mask id="mask-2" fill="white"><use xlink:href="#path-1"></use></mask><g id="Clip-22"></g><path d="M87.5420928,0.378046823 C85.9378035,-0.515105351 84.4281547,0.738214047 83.932051,1.15007023 C82.8669089,2.03411706 81.6716246,3.45455184 80.2875192,5.09930936 C77.6612232,8.21996154 74.0643336,12.4939582 68.9471263,15.9409314 C68.5809808,16.1876037 68.484041,16.6843512 68.7307132,17.0505886 C68.9773855,17.4168261 69.4743169,17.5135819 69.8403704,17.2670017 C75.1433637,13.6949448 78.8236731,9.321801 81.5107634,6.12867391 C82.8455711,4.54277926 83.9981798,3.17302174 84.9532299,2.38030435 C86.1164156,1.41467726 86.5540242,1.65813043 86.764551,1.77502843 C86.7803704,1.78385786 86.8647099,1.89624916 86.8853119,2.21861538 C86.9611898,3.40479431 86.1281881,5.92329766 83.5630543,9.43373244 C80.6461229,13.4255552 76.2381212,17.6493344 70.8156547,21.648607 C61.4418336,28.5620518 53.6428704,31.0006304 44.6122935,33.824209 C42.0277533,34.6323779 39.3552868,35.4680468 36.5312483,36.4461823 C29.1640075,38.9981639 21.4549941,41.9946522 14.9877115,46.6020518 C11.6884473,48.952612 8.91766137,51.5534314 6.5171597,54.5534147 C3.91036204,57.811107 1.80904933,61.448005 0.0929205686,65.6721522 C-0.0731831104,66.0811572 0.123731605,66.5474615 0.532828595,66.7136572 C0.63133194,66.7537575 0.733146321,66.772612 0.833397157,66.772612 C1.14904933,66.772612 1.44823829,66.5843428 1.57433361,66.2738411 C3.23141555,62.1949197 5.25657441,58.687888 7.76551254,55.5524281 C10.0723855,52.6695268 12.7383219,50.1678545 15.9155376,47.904209 C19.6401781,45.250689 24.7790911,42.2090418 37.0545761,37.9571187 C39.8556212,36.986801 42.5163152,36.154811 45.0894507,35.3503211 C54.2573436,32.483607 62.1749523,30.0078712 71.7647266,22.9353127 C77.3162316,18.8409398 81.8424189,14.4983311 84.8539908,10.37701 C87.2820844,7.0541087 88.6041079,4.04327258 88.4809557,2.11652508 C88.4143671,1.07437625 87.9335309,0.595931438 87.5420928,0.378046823" id="Fill-21" fill="#84511E" mask="url(#mask-2)"></path></g><path d="M58.5143344,63.7596145 C57.3136237,59.7584105 55.4991756,53.7119055 56.491107,47.2640293 C56.5582475,46.8276162 56.2588746,46.419439 55.8225535,46.3522985 C55.3863244,46.2856179 54.9780552,46.5845309 54.9108227,47.020852 C53.8638913,53.8255844 55.7408813,60.0803169 56.9829799,64.2191129 C57.42951,65.7073319 57.8152458,66.9925661 57.9388579,67.886638 C58.0390167,68.6101915 57.9321438,68.8264206 57.886893,68.8450911 C57.7024866,68.9208771 57.5481555,68.9171062 57.3707391,68.831755 C56.7530468,68.5353253 56.1636823,67.463745 55.7924783,66.5361028 C55.6329967,66.0442299 55.5076371,65.7162533 55.4974281,65.689857 C55.3436488,65.2901413 54.9020853,65.0822818 54.4960234,65.2193219 C54.0900535,65.3561781 53.8640753,65.7887283 53.9836405,66.2000326 C54.0121522,66.2980761 54.1104716,66.6237533 54.2793344,67.0549239 C54.4083729,67.4550995 54.5604967,67.9684941 54.6832809,68.5026747 C55.0547609,70.1194724 54.8812993,70.7399239 54.7876706,70.8364958 C54.6944097,70.8766881 54.6020686,70.8891965 54.4573946,70.8234356 C53.7773445,70.5142216 53.0075284,69.0883604 52.5136321,67.8364206 C52.3424699,67.3184273 52.2068094,66.9707684 52.1973361,66.9467634 C52.0403378,66.546036 51.5940836,66.3414875 51.1880217,66.4845059 C50.7818679,66.6272483 50.5617759,67.0658687 50.6899866,67.4768052 C50.6971605,67.4996145 50.7997107,67.8262115 50.9822776,68.2992299 C51.111408,68.687541 51.2648194,69.186036 51.3922943,69.7071564 C51.822913,71.4661446 51.6003378,71.9742968 51.5552709,72.0530259 C51.1849866,72.1516212 50.8824866,72.107842 50.6055552,71.9156179 C49.9831722,71.4836196 49.578306,70.4280426 49.3392676,69.4823737 C49.2488579,68.6424741 49.0844097,67.9822901 49.0449532,67.8310861 C48.9398278,67.429347 48.5452625,67.1754089 48.1353378,67.2454925 C47.7261488,67.3162199 47.4391923,67.6886196 47.4749699,68.1023152 C47.4889498,68.2632684 47.5565502,68.9465376 47.759903,69.7833102 C47.8440585,70.6599992 47.825112,71.6449406 47.4695435,72.1910778 C47.3356304,72.396638 47.1676873,72.5059941 46.9250619,72.5451747 C46.9130134,72.5473821 46.8173612,72.5258604 46.6498779,72.3780594 C45.6299866,71.4774574 44.3937742,68.2778002 43.5004381,64.2266547 C42.5190836,59.7767132 42.0407308,54.9198821 42.187888,50.9011112 C42.3845268,45.5278503 43.5686823,40.6192383 45.7073361,36.3118554 C47.4205217,32.8612952 49.7534231,29.8798905 52.2759732,27.9169975 C52.6243679,27.6458604 52.6870936,27.1435025 52.4159565,26.7951079 C52.1448194,26.4467132 51.6425535,26.3838035 51.2940669,26.6551246 C48.5858227,28.7625075 46.0931639,31.9395393 44.2753127,35.6009022 C42.0350284,40.1129256 40.7951371,45.2408938 40.5901288,50.8426162 C40.438097,54.9907935 40.9298779,59.9945059 41.9390084,64.5709105 C42.4149699,66.7291547 43.7235652,71.9271145 45.5916338,73.5764707 C46.0978545,74.0236446 46.5678378,74.1437617 46.9270853,74.1437617 C47.0194264,74.1437617 47.1044097,74.135852 47.1808395,74.1235276 C47.8670518,74.0123319 48.430204,73.6457266 48.8093177,73.063444 C48.8992676,72.9254841 48.9765251,72.7782349 49.0430217,72.623536 C49.2353378,72.8546647 49.4508311,73.060041 49.691801,73.2276162 C50.3641254,73.6951162 51.1615334,73.8204758 51.9976622,73.5897149 C52.4362826,73.4686781 52.7810903,73.1790543 52.9945602,72.7520226 C53.1106304,72.52025 53.1872441,72.2448821 53.2242174,71.9241714 C53.4107391,72.0722483 53.6005719,72.1900661 53.7945435,72.2784523 C54.3360819,72.5250326 54.9032809,72.5321145 55.4348863,72.2985945 C56.2713829,71.9312533 56.5043512,71.0487701 56.5141923,70.1865209 C56.5676288,70.21724 56.621801,70.2457517 56.676801,70.2723319 C57.2634983,70.5546898 57.8925953,70.5722567 58.4963997,70.3231012 C59.8149281,69.7795393 59.5950201,68.1898737 59.5226371,67.6675577 C59.382102,66.6511614 58.9991254,65.3750326 58.5143344,63.7596145" id="Fill-24" fill="#84511E"></path><path d="M71.2771948,27.3486304 C70.3871697,27.6539816 69.5556396,27.594291 68.8055978,27.171398 C67.8671948,26.6422759 67.120648,25.5594749 66.8575125,24.3455201 C66.7640677,23.9139816 66.3380477,23.6400853 65.9068771,23.7334381 C65.4753386,23.8270669 65.2013503,24.2526271 65.2949791,24.6841656 C65.6573537,26.3558712 66.6761413,27.8063813 68.0203303,28.5642408 C68.6987249,28.9466656 69.4318436,29.1390736 70.1907149,29.1390736 C70.7167099,29.1390736 71.2551212,29.0465485 71.7961998,28.8609465 C72.2137584,28.7176522 72.4361497,28.2629365 72.2928554,27.845286 C72.149561,27.4278194 71.6949373,27.2055201 71.2771948,27.3486304" id="Fill-26" fill="#84511E"></path><path d="M71.4509047,39.2188353 C70.0531873,39.3696714 67.9345836,38.5030075 66.5587559,37.6334925 C65.310311,36.844638 63.1183127,35.1039523 62.464199,32.3098052 C62.3635803,31.8799222 61.9333294,31.6130159 61.5036304,31.7136346 C61.0736555,31.8143453 60.8068411,32.2444122 60.9074599,32.6742952 C61.4884548,35.1561931 63.1921672,37.3973972 65.7046003,38.9851313 C67.5065401,40.12376 69.6260635,40.832046 71.1606371,40.832046 C71.3214064,40.832046 71.4757375,40.8243202 71.6225268,40.8085008 C72.0615151,40.7612266 72.3789147,40.3667533 72.3315485,39.927857 C72.2840903,39.4889607 71.8900769,39.171561 71.4509047,39.2188353" id="Fill-28" fill="#84511E"></path><path d="M88.1382082,35.7929239 C87.7720627,35.5466196 87.2751313,35.6438353 87.0287349,36.0102567 C86.6543119,36.5671547 85.615842,36.4275393 85.306352,36.3716196 C83.8817784,36.1137266 82.4519624,35.1309005 82.2465861,34.2683754 C82.1442199,33.8389523 81.7134172,33.5734256 81.2837182,33.6758838 C80.8542032,33.778158 80.5888604,34.2092366 80.6911346,34.6387517 C80.9298052,35.6406162 81.7305242,36.3798052 82.3602651,36.8234841 C83.1367952,37.370541 84.106745,37.779362 85.0215109,37.9449139 C85.3365192,38.0019373 85.6388353,38.0298972 85.9261597,38.0298972 C86.9999473,38.0298972 87.8608169,37.6380911 88.355541,36.9023972 C88.6019373,36.5360677 88.5046296,36.0393202 88.1382082,35.7929239" id="Fill-30" fill="#84511E"></path><path d="M24.618561,54.7455192 C24.2548988,54.4425594 23.8788202,54.1292065 23.5166296,53.8207283 C23.1804674,53.5345995 22.6759941,53.5749758 22.3896814,53.9112299 C22.1034607,54.2473002 22.1439289,54.7517734 22.4800911,55.0380861 C22.8488119,55.3520828 23.2281095,55.6681028 23.5950828,55.9738219 C25.7708018,57.7867985 28.0205594,59.6613972 29.3543554,62.1685878 C30.8408269,64.9629189 31.0242216,68.3149758 29.9150242,72.4162467 C29.1466798,75.2565644 25.9790293,78.7143905 20.7543052,82.4163135 C16.7288202,85.2684958 12.8884774,87.2552099 12.8501246,87.2749841 C12.5975661,87.4050343 12.4330259,87.6592483 12.4178503,87.9428018 C12.4025828,88.2264473 12.5389791,88.4968487 12.7759941,88.6531112 C14.4446647,89.7532032 19.0457182,93.0588135 20.2810109,95.1177266 C20.445551,95.3918988 20.3812617,95.5056697 20.3386781,95.5808119 C20.2373236,95.7597918 19.733862,96.3841982 17.5071898,96.9089055 C15.9924824,97.2658537 14.0639875,97.4704941 12.2159691,97.4704941 C10.4151329,97.4704941 7.92596906,96.3152182 5.87450585,94.5273503 C3.49055936,92.4496747 1.98440552,89.8696413 1.63343562,87.2623838 C1.32403763,84.9636045 3.08477341,80.1179022 6.01485702,75.2046915 C9.0921898,70.0445326 12.5202166,66.323939 14.9613704,65.4948921 C15.3793888,65.3527935 15.6031597,64.8989055 15.461245,64.4807952 C15.3192383,64.0626848 14.8648905,63.8390978 14.447148,63.9809206 C11.6199824,64.9411212 7.9543888,68.8308537 4.64169649,74.3857617 C3.17619482,76.8431028 1.96472324,79.3335543 1.13834365,81.5880025 C0.224957358,84.0797416 -0.14155602,86.0607533 0.0489205686,87.4756697 C0.451579431,90.4675594 2.14747408,93.3999423 4.82398746,95.7326597 C7.18558445,97.790837 10.0179925,99.069357 12.2159691,99.069357 C15.1817383,99.069357 20.5229005,98.5005025 21.7299574,96.3686547 C22.0950911,95.7237383 22.0674072,94.9874005 21.652056,94.2952099 C20.3901831,92.1920577 16.6328921,89.3911965 14.749464,88.0671497 C16.2130343,87.2555778 18.8662784,85.7121747 21.6630008,83.7318988 C27.2832099,79.7525844 30.5787952,76.0857952 31.4584273,72.8337132 C32.6787283,68.3217818 32.4521982,64.5875761 30.7658687,61.4176263 C29.2849156,58.6337801 26.9126497,56.6570911 24.618561,54.7455192" id="Fill-32" fill="#84511E"></path><path d="M97.8128737,23.5104582 C96.92524,24.3338027 95.5968704,24.9010017 94.0724139,25.1076656 C92.469964,25.3249983 90.748041,25.1216455 89.2237684,24.535408 C85.1705075,22.9763696 82.3897885,17.5970385 82.3623804,17.5434181 C82.2100727,17.2435853 81.8864189,17.0710435 81.55274,17.1121555 C81.219061,17.1528997 80.9465443,17.3981003 80.8708503,17.725709 C80.8679992,17.7379415 80.5621881,18.9678997 79.6657249,19.4982174 C79.1966614,19.7757007 78.63774,19.8169047 77.957046,19.6245886 C76.3006998,19.1564448 75.733041,16.7981589 75.1321798,14.3011773 C74.4961848,11.6591538 73.8385761,8.92699666 71.6487851,8.0145301 C70.222556,7.42029097 68.4983336,7.43436288 66.5244038,8.05674582 C64.1689691,8.79915385 61.3773972,10.4367375 58.2270376,12.923786 C57.8805744,13.1973144 57.8213436,13.7000401 58.094964,14.0465953 C58.3685844,14.3930585 58.8712182,14.4523813 59.2178654,14.1786689 C64.4311848,10.0628662 68.5170962,8.44192977 71.033852,9.49033278 C72.474245,10.0905502 73.0350978,12.4213361 73.577648,14.6753244 C74.2598135,17.5096639 74.9652483,20.4405753 77.5222885,21.163209 C78.6312099,21.4765619 79.6260844,21.3792542 80.4797801,20.874413 C81.0325393,20.5473562 81.4405326,20.0912609 81.7363186,19.6422475 C82.9236931,21.513811 85.3661346,24.7647893 88.6497634,26.0276739 C89.9694875,26.5352742 91.3713436,26.793903 92.772464,26.793903 C93.2787768,26.793903 93.7851814,26.7601488 94.2871714,26.6920886 C96.1350059,26.4415535 97.7733253,25.7279331 98.9001814,24.6827492 C99.2238353,24.3824565 99.2428737,23.8766037 98.9426731,23.5529498 C98.6423804,23.229204 98.1366196,23.2101656 97.8128737,23.5104582" id="Fill-34" fill="#84511E"></path><path d="M95.301342,33.5613127 C94.1330059,33.4218813 92.9580477,34.3828177 90.8251881,36.128286 C86.6288169,39.5623829 78.8179891,45.9545234 62.7717851,50.4605686 C62.3466848,50.5799498 62.0989089,51.0213294 62.2181982,51.4463378 C62.3375794,51.8715301 62.779051,52.1190301 63.2040594,52.0000167 C79.5718938,47.4034699 87.5510326,40.8737375 91.8377216,37.365602 C93.2679975,36.1952425 94.6203721,35.0909197 95.1111413,35.1488629 C95.1700962,35.1559448 95.242755,35.2162793 95.3271865,35.3282107 C95.3704139,35.38551 95.425138,35.6785368 95.1630142,36.337709 C94.3975209,38.2632609 91.5669523,41.6915635 87.951852,45.0717642 C83.9637082,48.8009114 80.9930644,50.6946405 79.9207483,50.8761037 C79.485439,50.9498662 79.1922283,51.3624582 79.2658988,51.7976756 C79.3318436,52.1878261 79.6702132,52.4638378 80.0531898,52.4638378 C80.097337,52.4638378 80.1424038,52.4601589 80.1874707,52.4525251 C82.1785995,52.1155351 86.0678721,49.022291 89.0438503,46.2396405 C90.8064256,44.5916639 92.4257065,42.8980686 93.72676,41.3418813 C95.2036664,39.5755351 96.1867684,38.0906271 96.64875,36.9284532 C97.0813002,35.8406856 97.0660326,34.9782525 96.6035911,34.3652508 C96.2470109,33.8927843 95.8089423,33.622199 95.301342,33.5613127" id="Fill-36" fill="#84511E"></path><path d="M54.8325811,8.9938612 C53.8815778,8.65319231 52.9081329,8.63617726 52.0179239,8.94483946 C51.0347299,9.28578428 50.1569373,10.0078662 49.4091028,11.091403 C48.4359339,12.5010769 47.9918871,14.1081254 48.1247885,15.738811 C48.2426982,17.1850903 48.8203821,18.6059849 49.7513353,19.7396472 C50.9654741,21.2180251 52.5805242,22.0176405 54.1888604,22.0176405 C54.8379156,22.0176405 55.4858671,21.8873144 56.1056747,21.6191204 C56.5109089,21.4436355 56.6971547,20.9730084 56.5217617,20.5678662 C56.3463687,20.1627241 55.8757416,19.9764783 55.4705995,20.1516873 C53.9862433,20.7942124 52.2263353,20.2340953 50.9869038,18.7249983 C49.7577734,17.2281338 48.9516279,14.5686355 50.7248721,11.9996388 C51.7453152,10.5212609 52.9455661,10.0163278 54.2934339,10.4990033 C55.1872299,10.8193462 56.0867283,11.5636856 56.7609841,12.5415452 C57.3967952,13.4636689 57.7388436,14.4612107 57.6759339,15.2101488 C57.6389607,15.6500569 57.9656497,16.0367124 58.4056497,16.0736856 C58.844454,16.1108428 59.2323052,15.7839699 59.2690945,15.3439699 C59.4686764,12.968301 57.3125477,9.88223077 54.8325811,8.9938612" id="Fill-38" fill="#84511E"></path><path d="M31.4304214,67.300143 C31.4406304,67.9683286 31.4058645,68.6721079 31.3192258,69.4170911 C35.0366923,66.4825928 38.6427793,63.920862 42.1923027,61.6893152 C42.0960067,61.1240477 42.0067926,60.5501346 41.9251204,59.9707952 C38.4903796,62.09924 35.0082726,64.5299089 31.4304214,67.300143" id="Fill-40" fill="#84511E"></path><path d="M95.0881204,33.6290418 C94.6298177,33.6154298 94.1250686,33.7475033 93.5490401,34.0333562 C92.5991405,34.5047191 91.4888395,35.3590585 89.9521505,36.5414666 C87.6956789,38.2778294 84.605194,40.6557057 80.2289231,43.1491923 C75.0628779,46.092704 69.1855117,48.5536321 62.7600769,50.4640084 C60.2972174,51.1962074 57.8714231,52.0479716 55.4651271,53.0255552 C55.5015485,53.5891672 55.5531455,54.1446856 55.6171589,54.6910067 C58.1234298,53.6549281 60.6494749,52.7594766 63.2157124,51.9965585 C69.7581371,50.0516003 75.7485385,47.5422023 81.0203528,44.5384482 C85.4927358,41.9902375 88.633714,39.5733645 90.9271589,37.8085819 C92.3366488,36.7239415 93.4499849,35.8673946 94.2598094,35.4655635 C95.0636555,35.0666756 95.2460385,35.2538411 95.3925518,35.4043094 C95.4792826,35.4934314 95.5759465,35.6372776 95.5523094,35.9601957 C95.488388,36.8347692 94.5606538,39.0559231 89.0646087,44.1040585 C85.8493161,47.0572274 82.62501,49.530204 82.5928194,49.5547609 C82.2422174,49.8231388 82.1754448,50.3248528 82.4437308,50.6755468 C82.7120167,51.0261488 83.2138227,51.0929214 83.5643328,50.8246355 C83.5970753,50.7996187 86.870587,48.289301 90.1382124,45.2888579 C94.707995,41.0926706 97.000612,38.0793512 97.1469415,36.0767258 C97.1986304,35.3695435 96.9881037,34.7513913 96.5383545,34.2892258 C96.1281538,33.8678043 95.6402358,33.645597 95.0881204,33.6290418" id="Fill-42" fill="#84511E"></path><path d="M32.6490209,34.723643 C32.1208186,34.579337 31.5746814,34.4301564 31.0233018,34.2840109 C27.6793386,33.3978487 23.8168303,33.0791614 20.1475577,33.3869958 C15.8814707,33.7446798 12.0268721,34.9359172 9.0004005,36.8317617 C4.87015803,39.419061 2.29223997,43.2124055 1.33829348,48.1066697 C0.522950669,52.2895209 0.845684783,56.3000142 2.29757441,60.0262182 C3.45487375,62.9965861 5.32643729,65.7853069 7.86002425,68.3145711 C8.27031689,68.7241279 8.68401254,69.1129908 9.09678846,69.4817115 L10.0693135,68.2052149 C9.70822659,67.8803654 9.34723161,67.5398804 8.98954766,67.1829323 C6.61397074,64.8114022 4.86362793,62.2081915 3.78735702,59.4457751 C2.44703094,56.0058838 2.15106104,52.2937517 2.90763294,48.4124808 C3.77356104,43.9700811 6.10903763,40.529638 9.8491296,38.1867115 C15.9399657,34.3712935 24.6670309,34.2536597 30.613837,35.8294373 C31.1592383,35.9740192 31.7024323,36.1223721 32.2275995,36.2659423 C35.4664373,37.1509089 38.5262952,37.9867617 41.6281848,37.7848804 C42.5979507,37.7218788 43.5382851,37.5600978 44.4592132,37.2954908 L45.4169306,35.2550644 C44.154046,35.7957751 42.8678002,36.102046 41.5245309,36.1894206 C38.6888119,36.373643 35.8898821,35.6090694 32.6490209,34.723643" id="Fill-44" fill="#84511E"></path><g id="Group-48" transform="translate(55.919732, 0.071739)"><mask id="mask-4" fill="white"><use xlink:href="#path-3"></use></mask><g id="Clip-47"></g><path d="M40.1184348,10.9517324 C38.433209,8.38926589 36.1376488,6.08873913 33.2953997,4.11407358 C30.3980585,2.10123913 27.199413,0.814441472 23.7882174,0.289274247 C20.7324983,-0.181076923 17.5829666,-0.0350234114 14.4269967,0.723755853 C11.2210853,1.49439967 8.13014047,2.88209197 5.48820903,4.73664047 C3.08586789,6.42315385 1.19931271,8.38466722 0.00485618729,10.4326355 C0.439613712,10.7644749 0.839053512,11.1613395 1.18634448,11.5950853 C1.18680435,11.5941656 1.18717224,11.5934298 1.18763211,11.592602 C2.23033278,9.64608027 4.08396154,7.67610535 6.40683779,6.04523579 C8.88588462,4.30491806 11.7883763,3.00239298 14.8006839,2.27828763 C16.6282843,1.83893144 18.4513779,1.61883946 20.2512023,1.61883946 C21.3594799,1.61883946 22.459112,1.70244314 23.5449482,1.86955853 C26.7137023,2.35738462 29.6872893,3.55423244 32.3831171,5.42717559 C35.0569632,7.2847592 37.2099649,9.43904849 38.7825234,11.8302609 C40.2562107,14.071189 41.2240452,16.5238395 41.6592625,19.1203361 C42.5075318,24.1797843 41.3233763,29.6351773 38.3152074,34.7482458 L39.1118796,34.3250769 L40.045592,34.7749181 L40.3836856,34.3243411 C43.0698562,29.2452107 44.0784348,23.8805033 43.2361438,18.855913 C42.7638612,16.0389565 41.7149064,13.3795502 40.1184348,10.9517324" id="Fill-46" fill="#84511E" mask="url(#mask-4)"></path></g><path d="M63.5417483,44.4818846 C58.6289055,41.8627625 55.3864808,38.0586572 53.9046079,33.1749699 C52.9145159,29.9121271 52.7412383,26.2760569 53.3897416,22.3677458 C53.4553186,21.9725368 53.5307366,21.5754883 53.6131446,21.1775201 C53.0843905,21.1019181 52.5695242,20.9250535 52.0860209,20.6647692 C51.9831948,21.146801 51.8917734,21.6275452 51.8124005,22.1060819 C51.123337,26.2587659 51.3125259,30.139209 52.3746329,33.6392508 C53.1431614,36.1719181 54.3702684,38.4710652 56.0218319,40.4728629 C57.7930527,42.6194264 60.0700343,44.4429799 62.7895911,45.8929381 C65.529658,47.3536572 68.3051346,48.289209 71.0702182,48.6883729 L73.9805276,47.309786 C73.8636296,47.3087742 73.7467316,47.3084064 73.6297416,47.3053712 C70.2880778,47.2190084 66.8938972,46.2691087 63.5417483,44.4818846" id="Fill-49" fill="#84511E"></path></g></g></g></g></g></svg> 