<?xml version="1.0" encoding="UTF-8"?> <svg xmlns="http://www.w3.org/2000/svg" xmlns:xlink="http://www.w3.org/1999/xlink" width="110px" height="118px" viewBox="0 0 110 118" version="1.1"><title>Group 60</title><defs><polygon id="path-1" points="2.70927216e-05 0.078173268 109.966211 0.078173268 109.966211 117.398374 2.70927216e-05 117.398374"></polygon></defs><g id="Learts" stroke="none" stroke-width="1" fill="none" fill-rule="evenodd"><g id="01--Baby-Carrier" transform="translate(-1195.000000, -3656.000000)"><g id="Group-20" transform="translate(0.000000, 3584.000000)"><g id="Group-18-Copy-3" transform="translate(1182.000000, 72.000000)"><g id="Group-60" transform="translate(13.000000, 0.000000)"><path d="M77.7504959,41.3147073 C77.4015528,41.1402358 76.977,41.2817805 76.8023659,41.6307236 C76.627813,41.9798293 76.7693577,42.4043008 77.1183821,42.5788537 C80.6098455,44.3245447 83.4017154,47.4414553 85.1920407,51.5925122 C87.0555366,55.9132439 87.6841545,61.048935 87.0096829,66.4445447 C86.9612276,66.8317805 87.2359431,67.1849512 87.6232602,67.2334065 C87.6530163,67.2371463 87.6825285,67.238935 87.7117154,67.238935 C88.0630163,67.238935 88.3674065,66.9773089 88.412122,66.6198293 C89.1177317,60.9745447 88.4530163,55.5847073 86.4897642,51.0327561 C84.5657805,46.5718618 81.543748,43.2114553 77.7504959,41.3147073" id="Fill-1" fill="#FFFFFF"></path><path d="M38.2323415,38.4167724 C35.5477886,38.4167724 33.3716098,40.5930325 33.3716098,43.2774228 C33.3716098,45.9619756 35.5477886,48.1380732 38.2323415,48.1380732 C40.916813,48.1380732 43.0929106,45.9619756 43.0929106,43.2774228 C43.0929106,40.5930325 40.916813,38.4167724 38.2323415,38.4167724" id="Fill-3" fill="#E5BA93"></path><path d="M56.5046992,36.6944553 C54.2899024,37.147626 52.6237236,39.1074634 52.6237236,41.4562439 C52.6237236,43.4696585 53.8477886,45.1970569 55.5923415,45.9349431 C56.1738862,46.1809593 56.1787642,43.028439 56.4913659,42.4346179 C57.4669756,40.5809593 56.8212033,36.6296585 56.5046992,36.6944553" id="Fill-5" fill="#E5BA93"></path><path d="M54.1499106,73.1662846 C51.2341382,73.8221382 51.2580407,76.963439 51.2580407,76.963439 C51.2580407,76.963439 49.3812114,74.7588862 47.2036504,74.9623008 C44.350561,75.2288049 42.2388537,78.690187 43.795439,82.2991301 C46.3349512,88.1875041 51.2593415,87.8745772 53.2393415,87.3451463 C55.5117805,86.7376667 59.7596667,80.2415691 59.0279593,76.6784797 C58.5896667,74.5448211 56.8836504,72.5514878 54.1499106,73.1662846" id="Fill-7" fill="#E5BA93"></path><path d="M70.5047967,36.1094634 C68.1899187,35.439626 65.4123577,35.5827967 62.8839837,36.5021463 C62.5172358,36.635561 62.3279675,37.0410081 62.4613008,37.4078374 C62.5947154,37.7745041 63.0002439,37.9637724 63.3669919,37.830439 C65.62,37.0111707 68.0784553,36.8785691 70.1119512,37.4671057 C72.6199187,38.1927154 74.4129268,39.9165366 75.4415447,42.5907642 C75.5495122,42.8715772 75.8173171,43.043935 76.1012195,43.043935 C76.1855285,43.043935 76.2713008,43.0286504 76.3547154,42.9966179 C76.7190244,42.8565366 76.9007317,42.4476748 76.7605691,42.0833659 C75.5817073,39.0182439 73.4185366,36.9524715 70.5047967,36.1094634" id="Fill-9" fill="#FFFFFF"></path><path d="M40.255813,9.86589431 C34.0306911,12.0661382 30.3161382,15.8679268 28.900122,21.4884146 C27.6642683,26.3936179 28.2964634,32.1046748 28.9079268,37.6277642 C29.3224797,41.372561 29.7511789,45.2448374 29.5612602,48.7122358 C29.3502846,52.5657317 28.4296341,55.4247561 26.6638618,57.7097967 C25.3386585,59.4248374 23.4313415,60.7812602 21.4119919,62.2173577 C16.9711789,65.3754878 11.9378455,68.9549187 12.077439,77.4706098 C12.0836992,77.8568699 12.3988211,78.1657317 12.7837805,78.1657317 C12.7876829,78.1657317 12.7915854,78.1657317 12.7955691,78.1657317 C13.185813,78.1592276 13.4969512,77.8376829 13.4905285,77.447439 C13.3632114,69.6754878 17.8713415,66.4695528 22.2310976,63.3691463 C24.3383333,61.8705285 26.3286585,60.4550813 27.7822358,58.5739431 C29.7046748,56.0861382 30.748252,52.8856504 30.9724797,48.7894715 C31.1687398,45.2054878 30.7335366,41.2741057 30.3126423,37.4722358 C29.7150813,32.0737805 29.0971138,26.4915854 30.2706911,21.8336992 C30.8902033,19.3747561 31.9486585,17.3576016 33.506626,15.6671138 C35.2697154,13.754187 37.6314228,12.292561 40.7267886,11.1984959 C41.0947561,11.0684146 41.2876016,10.6646748 41.1576016,10.2967073 C41.027439,9.92873984 40.6239431,9.73613821 40.255813,9.86589431" id="Fill-11" fill="#FFFFFF"></path><path d="M38.2324228,6.60695935 C31.7340488,8.50468293 27.5658374,12.214439 25.4895772,17.9481789 C23.6747805,22.9594797 23.6452683,28.8872846 23.6166504,34.6198862 C23.5838862,41.1802927 23.5529106,47.3769593 21.0098211,51.9819187 C19.8753496,54.0364715 18.0577886,55.6085854 16.133561,57.2729756 C14.3082764,58.8516748 12.4210407,60.4841951 10.9897398,62.6494797 C9.35534959,65.1220813 8.5860813,67.9272033 8.63795122,71.2250894 C8.64347967,71.5715122 8.926,71.8486667 9.27128455,71.8486667 C9.27461789,71.8486667 9.27803252,71.8486667 9.28144715,71.8486667 C9.63128455,71.8430569 9.91047154,71.5549268 9.90494309,71.2050894 C9.79827642,64.4282602 13.4403902,61.277935 16.9625041,58.2312683 C18.9746992,56.4908618 20.8752683,54.8469593 22.1191707,52.5945203 C24.818439,47.7064715 24.8501463,41.3528943 24.8838049,34.6262276 C24.9118537,29.0012683 24.9409593,23.1849268 26.6809593,18.3796423 C27.6051057,15.8276098 28.9248618,13.7666341 30.7155935,12.0789919 C32.7398211,10.1711057 35.3147805,8.77907317 38.587626,7.82330081 C38.923561,7.72525203 39.1163252,7.37346341 39.0181951,7.03752846 C38.9201463,6.7016748 38.5686829,6.50882927 38.2324228,6.60695935" id="Fill-13" fill="#FFFFFF"></path><path d="M36.0769187,3.91021951 C29.2391138,5.36249593 24.662935,8.77021951 22.0871626,14.3281057 C19.8283821,19.2017642 19.3396829,25.1331463 18.8670813,30.8692439 C18.4008211,36.5286748 17.9604146,41.8742033 15.9598455,46.1881057 C14.980252,48.3002195 13.3079756,49.5342033 11.5376504,50.8405447 C10.0685447,51.9246911 8.54943902,53.0456667 7.40968293,54.7155854 C6.12179675,56.6024146 5.51805691,58.939 5.56391057,61.8585122 C5.56903252,62.1789187 5.83033333,62.4351789 6.14976423,62.4351789 L6.15911382,62.4351789 C6.48269106,62.4300569 6.74090244,62.1637154 6.73578049,61.8400569 C6.64252846,55.9093252 9.35821951,53.9052602 12.2335041,51.7835528 C14.044561,50.4471301 15.9173252,49.0651789 17.022935,46.6811138 C19.1112276,42.1781057 19.5809024,36.4780244 20.0351301,30.9655041 C20.4992764,25.3313577 20.9792764,19.5055041 23.1504146,14.8208699 C24.3049675,12.329813 25.832935,10.3561545 27.8217154,8.78737398 C30.0697642,7.01412195 32.8497642,5.79371545 36.3203333,5.05656098 C36.637,4.9892439 36.8390325,4.67818699 36.7717967,4.36168293 C36.704561,4.04501626 36.3936667,3.84273984 36.0769187,3.91021951" id="Fill-15" fill="#FFFFFF"></path><path d="M27.9668455,32.9627886 C26.5402602,34.1120569 26.5636748,36.5084797 28.0192846,38.3153902 C29.474813,40.1222195 31.8113171,40.6552276 33.2379024,39.5059593 C34.6645691,38.3566911 34.6411545,35.9602683 33.1854634,34.1535203 C31.729935,32.3466098 29.3934309,31.8135203 27.9668455,32.9627886" id="Fill-17" fill="#E0D4C6"></path><path d="M67.8813333,29.7762602 C67.5805203,29.6625203 67.2930407,29.5536585 67.0201138,29.4493496 C63.4221463,28.0736585 61.2950732,24.521626 59.043122,20.7611382 C57.3762927,17.9776423 55.6527154,15.0993496 53.2223902,12.960813 C50.4298699,10.5035772 47.1045041,9.41512195 43.0551545,9.63138211 C42.6653984,9.65227642 42.366374,9.98504065 42.3872683,10.3747967 C42.4080813,10.7644715 42.7401138,11.0641463 43.1306829,11.0426829 C46.843122,10.8442276 49.752878,11.7904878 52.2887317,14.0218699 C54.5534472,16.0146341 56.2195447,18.796748 57.8306016,21.4872358 C60.1069431,25.2885366 62.4607642,29.219187 66.5153171,30.7695122 C66.789626,30.8743902 67.0787317,30.9837398 67.3810894,31.0982114 C72.0756423,32.8746341 79.9327967,35.8479675 85.6771057,42.0811382 C88.8348293,45.507561 90.9710894,49.5380488 92.0266179,54.0606504 C93.2849106,59.4515447 93.0464553,65.6906504 91.318,72.6046341 C91.2232846,72.983252 91.4534472,73.3669919 91.8321463,73.461626 C91.8897073,73.4760163 91.9473496,73.4829268 92.0040976,73.4829268 C92.3206829,73.4829268 92.608813,73.2685366 92.6891382,72.9474797 C95.9961301,59.7195122 93.9866179,49.0123577 86.716374,41.123252 C80.7456423,34.6443902 72.6927967,31.5970732 67.8813333,29.7762602" id="Fill-19" fill="#FFFFFF"></path><g id="Group-23" transform="translate(0.000000, 0.003252)"><mask id="mask-2" fill="white"><use xlink:href="#path-1"></use></mask><g id="Clip-22"></g><path d="M106.306057,41.9946504 C103.354756,51.846439 97.6128862,63.4694472 88.7522358,77.5278211 C83.7394715,85.4812358 76.0354878,96.7302602 67.800935,105.153512 C64.0960569,108.943268 60.638252,111.785301 57.5234553,113.600667 C54.202561,115.536195 51.2536179,116.314569 48.7600407,115.913268 C45.6714228,115.417089 41.7554065,113.149285 37.4353252,109.355057 C33.1836179,105.620992 28.6347561,100.492862 24.2805285,94.5251382 C14.7377642,81.4462764 7.23906504,66.0462764 3.70695122,52.2739187 C1.36321138,43.1347317 0.787764228,34.9536748 1.99670732,27.9577398 C3.34329268,20.1657886 6.91158537,13.9687967 12.6026423,9.53912195 C19.1810976,4.41855285 26.0604472,1.70578862 33.0495528,1.47595122 C33.3687398,1.46546341 33.6876829,1.46026016 34.0072764,1.46026016 C36.8439431,1.46026016 39.6942683,1.87343089 42.4930488,2.69147967 C45.4303659,3.55009756 48.3306911,4.85887805 51.1136992,6.58172358 C54.8588211,8.90017886 57.3438618,12.2031057 58.769065,14.5657886 C60.3250813,17.1452195 60.9940244,19.199935 61.0004472,19.219935 C61.0792276,19.4660325 61.2887398,19.6476585 61.5435366,19.6906667 C61.7978455,19.7337561 62.055813,19.6310732 62.2110976,19.4244878 C62.2335366,19.3945691 64.502561,16.3967642 68.2896341,13.2387154 C71.7693902,10.3368455 77.2670325,6.71652033 83.6970325,5.94839024 C89.8728862,5.21042276 95.8724797,7.19578862 101.527195,11.8490407 C105.427033,15.0583089 107.735407,19.4416423 108.388089,24.877252 C108.966463,29.6931057 108.265894,35.4522114 106.306057,41.9946504 M102.405407,10.7818049 C96.4481707,5.87960976 90.099065,3.79123577 83.5331301,4.57603252 C80.5381707,4.9337561 77.4926423,5.89700813 74.480935,7.43879675 C72.0845935,8.66562602 69.7036992,10.2598537 67.4045122,12.177252 C64.7679268,14.3758699 62.8663821,16.4697724 61.8783333,17.6392033 C61.508252,16.7468455 60.8906098,15.4118862 59.9738618,13.8873333 C57.2454878,9.34993496 54.0452439,6.77099187 51.8410976,5.40652033 C48.9523171,3.61822764 45.9376829,2.25839024 42.8807724,1.36489431 C39.625813,0.413512195 36.3021545,-0.0135609756 33.004187,0.0945691057 C25.7171138,0.334162602 18.5673577,3.14481301 11.7537805,8.44839024 C5.78264228,13.0961138 2.04174797,19.5808293 0.634756098,27.722374 C-0.607601626,34.9119675 -0.0243495935,43.2877398 2.36817073,52.6171707 C5.94207317,66.5528618 13.5219106,82.1247317 23.1640244,95.3398537 C32.4076016,108.008878 41.8942683,116.210016 48.5406911,117.277902 C49.040935,117.358309 49.553374,117.39839 50.0788211,117.39839 C55.1800407,117.39839 61.4641057,113.612699 68.7892276,106.119691 C77.1085772,97.6096098 84.8729675,86.274813 89.9215854,78.2647317 C98.849878,64.0989593 104.642317,52.3646504 107.630041,42.3912358 C109.644675,35.6659512 110.361423,29.7179024 109.760366,24.7124553 C109.06378,18.9117236 106.589228,14.224813 102.405407,10.7818049" id="Fill-21" fill="#84511E" mask="url(#mask-2)"></path></g><path d="M76.3902927,47.0313252 C75.7800488,49.5388862 74.2051707,51.6623008 71.8359024,53.1720569 C69.3454146,54.7592114 66.4035447,55.2155528 63.5523252,54.4566911 C61.1559837,53.8188862 59.1722439,52.3840894 58.2456585,50.6183984 C56.9022439,48.0580732 56.7082602,45.1292927 57.6994797,42.3717317 C58.5708618,39.9472602 60.2918374,37.8454715 62.3031382,36.7494553 L61.9724065,36.142626 L62.3031382,36.7494553 C64.6461463,35.4725447 67.3426504,35.1983171 69.8956585,35.9773415 C72.2889106,36.7075854 74.327935,38.2999431 75.4899675,40.346122 C76.6143577,42.3260407 76.9424878,44.7627073 76.3902927,47.0313252 M70.2990732,34.6553902 C67.3880163,33.7671789 64.3135447,34.0798618 61.6417561,35.5357967 C59.3415122,36.7892927 57.3815122,39.1701057 56.398748,41.904252 C55.2750894,45.0305935 55.4963902,48.3533577 57.0219187,51.2605935 C58.1249268,53.3627073 60.4333008,55.0568537 63.196878,55.7923008 C64.2164715,56.0636829 65.2463089,56.1978293 66.2669593,56.1978293 C68.4791545,56.1978293 70.6486667,55.5675854 72.578748,54.3375854 C75.2545203,52.6324634 77.0369593,50.2189675 77.7333008,47.3582358 C78.3770407,44.712626 78.0072846,41.9800244 76.6918374,39.6636829 C75.3569593,37.3131951 73.0269593,35.487748 70.2990732,34.6553902" id="Fill-24" fill="#84511E"></path><path d="M58.8420976,45.4485772 C58.4238049,45.5903659 58.2833171,46.2919106 58.5287642,47.0139431 C58.7738049,47.7359756 59.3122602,48.2071138 59.7302276,48.065 C60.1485203,47.9231301 60.2888455,47.2218293 60.0434797,46.4994715 C59.798439,45.777439 59.2599024,45.3063821 58.8420976,45.4485772" id="Fill-26" fill="#84511E"></path><path d="M64.638748,42.8066179 C64.2207805,42.9485691 64.0802927,43.649626 64.3256585,44.3721463 C64.5709431,45.0943415 65.1093984,45.5651545 65.5272846,45.4232033 C65.9453333,45.2811707 66.0858211,44.579626 65.8406179,43.8575935 C65.5950894,43.1357236 65.0567154,42.6644228 64.638748,42.8066179" id="Fill-28" fill="#84511E"></path><path d="M71.8715854,39.9517236 C70.7531301,40.0653821 69.8563821,40.8753008 69.5313415,42.0655447 C69.4307724,42.4336748 69.6476829,42.8136748 70.0158943,42.9141626 C70.3836992,43.0149756 70.7639431,42.7978211 70.8645122,42.4296911 C71.0689024,41.6816423 71.590935,41.3694472 72.0113415,41.3267642 C72.4754065,41.2800163 72.8888211,41.5211545 73.1177642,41.9726992 C73.3758943,42.4817236 73.3727236,43.0757886 73.1096341,43.5231057 C72.9694715,43.7613984 72.6980081,44.0494472 72.2008537,44.0683902 C71.8194715,44.0828618 71.5220732,44.4039187 71.536626,44.7853008 C71.5508537,45.1576585 71.8571951,45.4500163 72.2267073,45.4500163 C72.2356504,45.4500163 72.2445935,45.4498537 72.2535366,45.4495285 C73.115813,45.4166829 73.8620732,44.969935 74.300935,44.2238374 C74.8003659,43.3746504 74.8194715,42.2725366 74.3504472,41.3477398 C73.8602846,40.3809919 72.9102033,39.8465203 71.8715854,39.9517236" id="Fill-30" fill="#84511E"></path><path d="M68.2792683,47.6924472 C67.8984553,47.6616341 67.5654472,47.9449675 67.5345528,48.325374 C67.4466667,49.4098455 67.020813,50.280252 66.303252,50.8425285 C65.6503252,51.3541545 64.7844715,51.5822846 63.986748,51.4534228 C63.6106504,51.3922846 63.2552033,51.6483821 63.1941463,52.0251301 C63.1331707,52.401878 63.3891057,52.7567561 63.7658537,52.8177317 C63.9831707,52.852935 64.2037398,52.870252 64.4250407,52.870252 C65.3966667,52.870252 66.3810569,52.5375691 67.1558537,51.9304959 C67.8734146,51.3681382 68.7606504,50.3056179 68.9121951,48.4371626 C68.9430081,48.0566748 68.6596748,47.7233415 68.2792683,47.6924472" id="Fill-32" fill="#84511E"></path><path d="M85.3867317,55.5006667 C83.6633171,53.9195285 81.3004715,53.3718862 78.5542114,53.9166829 C76.4656748,54.3309919 74.6228293,55.2208293 72.4889268,56.2510732 C69.2290894,57.8251382 65.5342927,59.609122 59.4873821,60.4898537 C55.5907154,61.0570081 51.8317724,60.2335935 48.3150244,58.0427805 C47.4702276,57.5163577 46.7837236,56.9145691 46.1779512,56.3835122 C45.6686829,55.9370894 45.2288455,55.5514797 44.8064878,55.3162764 C44.0125854,54.8743252 43.4439675,55.0870081 43.106813,55.3434309 C42.7990081,55.5775772 42.6187642,55.9242439 42.5994146,56.3196098 C42.5968943,56.371561 42.5972195,56.4242439 42.6004715,56.4777398 C42.2014472,56.3898537 41.8020976,56.4330244 41.4625854,56.7257073 C41.1669756,56.9806667 41.0053496,57.3313984 40.9953496,57.7396911 C40.9932358,57.8283089 40.9990894,57.9192033 41.0120163,58.0120488 C40.5271382,57.8674959 40.0267317,57.8735122 39.6044553,58.2111545 C39.3239675,58.4353008 39.166813,58.7521301 39.1499837,59.1274959 C39.1359187,59.4416423 39.2373008,59.7987967 39.4109593,60.1714797 C38.760065,59.9238374 38.1846992,59.8952195 37.7838049,60.3033496 C37.5068943,60.5855447 37.147626,61.2561951 37.8540488,62.577252 C38.8055122,64.3570894 41.5974634,67.1227805 46.3342927,69.0601789 C48.9846992,70.1441626 52.8737236,71.2035122 57.9499837,71.2035122 C60.2325854,71.2035122 62.7558374,70.9892033 65.5134797,70.4666829 C65.888439,70.395626 66.1348618,70.0340813 66.0638049,69.6590407 C65.992748,69.284 65.6303089,69.0374959 65.2562439,69.1087154 C59.4194146,70.2147317 54.0220976,70.0473333 49.214374,68.6109106 C44.4304715,67.1817236 41.6873821,64.9330244 40.4780325,63.7197724 C39.4305528,62.6689593 38.9839675,61.8550569 38.8590081,61.4383089 C39.5081138,61.6741626 40.862748,62.5353821 42.0773821,63.507252 C42.3659187,63.7379837 42.7854309,63.7009919 43.0290894,63.4229431 C43.2726667,63.1447317 43.2542114,62.7242439 42.9870569,62.4684715 C42.9803089,62.4621301 42.3090081,61.8175772 41.6587642,61.0400163 C40.8374634,60.0575772 40.6133984,59.5406667 40.5528293,59.3203415 C40.7536423,59.3659512 41.2306341,59.5553821 42.1156748,60.3204228 C42.3333984,60.5087154 42.5397398,60.7008293 42.7221789,60.8778211 C43.0629919,61.256439 43.3559187,61.5424553 43.4869756,61.667252 C43.7553496,61.9226179 44.1773821,61.9210732 44.4436423,61.6635122 C44.710065,61.4061138 44.726,60.9843252 44.4799024,60.7074959 C44.461122,60.6863577 44.1822602,60.3737561 43.7686016,59.9673333 C43.6040488,59.7849756 43.4252683,59.5775772 43.2512033,59.3587154 C42.5562439,58.4844065 42.4110407,58.0295285 42.3836423,57.8469268 C42.5753496,57.9111545 43.0114472,58.1261138 43.803561,58.8444878 C43.8732358,58.9074959 43.9414472,58.9709106 44.0077886,59.0335935 C44.4181951,59.5033496 44.8138049,59.8855447 45.0299837,60.0862764 C45.2994146,60.3363577 45.717626,60.3319675 45.9815285,60.0757886 C46.2455122,59.8196911 46.2625041,59.4017236 46.0204715,59.1249756 C45.9987642,59.1001789 45.6057561,58.6522927 45.0670569,58.1338374 C45.0003902,58.0577398 44.9329919,57.978878 44.8659187,57.8981463 C44.2024228,57.0994472 44.0138049,56.6344065 43.983561,56.4509919 C44.2433984,56.5255447 44.8533171,57.0604228 45.266813,57.4228618 C45.8803089,57.9606667 46.6438049,58.6298537 47.5841301,59.2157886 C51.3858374,61.5841626 55.457626,62.4733496 59.6864878,61.8574959 C65.9438862,60.9461951 69.9061626,59.0330244 73.0899024,57.4957073 C75.138439,56.5066016 76.9077073,55.6522927 78.8232358,55.272374 C80.4249431,54.9545691 82.7017724,54.9130244 84.4523415,56.5190407 C86.6331545,58.5198537 87.4515285,62.6097724 86.8190894,68.3467642 C86.7773008,68.7261138 87.0509593,69.0675772 87.4303089,69.1094472 C87.8106341,69.1508293 88.151122,68.8775772 88.1929919,68.4982276 C88.8853496,62.217252 87.9412033,57.8442439 85.3867317,55.5006667" id="Fill-34" fill="#84511E"></path><path d="M76.9466911,65.4349268 C75.9067724,65.3510244 75.3672602,66.1439512 75.1896179,66.4040325 C74.8244959,66.9385041 74.5043333,67.6791545 74.0611626,68.7042764 C72.5554715,72.186878 69.7529512,78.6692358 60.3225447,87.7202927 C55.8618943,92.0016748 50.723439,94.3483415 49.3088049,94.9455772 C47.3410813,93.2334634 36.8287236,83.9799675 33.1966098,78.608748 C32.9828699,78.2925691 32.553439,78.2094797 32.2370163,78.4234634 C31.9209187,78.6372846 31.8379106,79.066878 32.0517317,79.3830569 C33.776935,81.9341951 37.1105935,85.5541138 41.9600244,90.1419187 C45.5571789,93.5451707 48.6953902,96.2431382 48.7266911,96.2699675 C48.8540894,96.3793984 49.0144146,96.4367154 49.176935,96.4367154 C49.2592114,96.4367154 49.3421382,96.4220813 49.4216504,96.3919187 C49.6821382,96.2932195 55.8645772,93.9148455 61.2796179,88.7175285 C70.911,79.4734634 73.7854715,72.8247642 75.3296992,69.2527317 C76.0107561,67.6774472 76.375065,66.874439 76.7649024,66.815252 C76.8355528,67.0386667 76.979374,67.9840325 75.971,70.9833821 C75.2078293,73.2532195 74.2132764,75.4214309 73.6119756,76.4754959 C73.4229512,76.8069593 73.5383984,77.2289919 73.8699431,77.4181789 C74.2014065,77.6072846 74.6235203,77.4918374 74.812626,77.1602114 C75.5688049,75.8345203 76.5690488,73.5193171 77.2451463,71.5300488 C78.6471789,67.4046829 78.1346585,66.4353333 77.9662846,66.1167154 C77.7525447,65.7124878 77.3904309,65.470374 76.9466911,65.4349268" id="Fill-36" fill="#84511E"></path><path d="M81.321935,59.1016423 C79.9125854,58.8097724 79.1833171,60.6795285 78.9086829,61.3839187 C78.4074634,62.669935 77.9431545,64.4687967 77.4516098,66.3732683 C76.4899837,70.0983089 75.4001463,74.3202602 73.6821789,76.3744878 C73.4373821,76.6673333 73.4762439,77.1031057 73.7690081,77.3479837 C73.8982764,77.4561138 74.0555935,77.508878 74.211935,77.508878 C74.4095772,77.508878 74.6057561,77.4245691 74.7424228,77.2611545 C76.6604715,74.9677398 77.7916911,70.5853008 78.7897398,66.7187154 C79.2328293,65.0025366 79.6512033,63.381561 80.0812033,62.193187 C80.4767317,61.1000163 80.7705528,60.6922927 80.925187,60.5413984 C81.0466504,61.034 81.2241301,62.6713984 80.3850244,67.4646504 C79.7789268,70.9267642 78.886813,74.5300163 78.2637236,76.032374 C78.1174634,76.3848943 78.2847805,76.7892033 78.6373008,76.9353821 C78.9895772,77.0814797 79.3941301,76.9145691 79.5403902,76.5618049 C80.1940488,74.9857886 81.0899024,71.4066829 81.7190894,67.8579024 C82.4977073,63.4661951 82.6218537,60.7274146 82.0880325,59.7178211 C81.8637236,59.2935122 81.5475447,59.1485528 81.321935,59.1016423" id="Fill-38" fill="#84511E"></path><path d="M83.6208211,60.1313984 C81.7722033,59.8958699 80.942122,63.6361951 79.6419593,70.2651382 C79.1482195,72.7820488 78.6819593,75.1594472 78.2791138,75.9978211 C78.1139106,76.3418862 78.2587886,76.7547317 78.6027724,76.9200163 C78.9466748,77.0849756 79.3596829,76.9404228 79.5249675,76.5963577 C80.0042358,75.5987967 80.4648862,73.2503415 80.9982195,70.5310732 C81.4097642,68.4328618 81.8352927,66.2632683 82.3082195,64.5020488 C82.9172439,62.2344065 83.3506585,61.664813 83.4977317,61.5285528 C83.5104959,61.5405041 83.5256179,61.5583089 83.543748,61.5848943 C83.7474878,61.8843252 84.1433415,63.0566829 83.4199268,67.4657886 C82.9931789,70.0663577 82.2628537,73.3596911 81.1215528,77.8300163 C81.0270813,78.1997724 81.2503333,78.5761138 81.6201707,78.6705041 C81.6774878,78.6852195 81.7349675,78.6922114 81.7915528,78.6922114 C82.0998455,78.6922114 82.3809024,78.4843252 82.4605772,78.1718862 C83.6122846,73.6617236 84.3504146,70.3308293 84.7838293,67.6896098 C85.4000081,63.9342439 85.3699268,61.8116423 84.6862683,60.807252 C84.4225285,60.4198537 84.0541545,60.1861138 83.6208211,60.1313984" id="Fill-40" fill="#84511E"></path><path d="M86.3771951,65.4339756 C84.090122,65.7169837 82.7972764,70.5312114 81.0859756,77.8435691 C80.999065,78.2151138 81.2297967,78.5869024 81.6014228,78.6738943 C81.9728049,78.7604797 82.3447561,78.5300732 82.431748,78.1584472 C83.1200407,75.2173089 83.7993902,72.3990976 84.5415854,70.2477967 C85.6096341,67.1519431 86.3465447,66.8304797 86.5468699,66.8056016 C86.573374,66.8023496 86.5944309,66.8012927 86.6105285,66.8012927 C86.6380894,66.8012927 86.6512602,66.8042195 86.6515041,66.8037317 C86.6680081,66.8191789 87.0387398,67.2039756 86.6067073,69.6352764 C86.2215041,71.8033252 85.3239431,74.9796667 83.8626423,79.3459268 C82.2251626,84.238935 80.405813,88.287878 78.1370325,92.088122 C76.2630488,95.227065 74.1179268,98.157065 70.9645122,101.885195 C70.7180081,102.176577 70.7544309,102.612593 71.045813,102.859016 C71.1756504,102.968854 71.3341057,103.022512 71.491748,103.022512 C71.6880081,103.022512 71.8830488,102.93926 72.0196341,102.777715 C77.5958943,96.185439 81.7413415,90.0395854 85.1732927,79.7845447 C88.7156504,69.2000732 88.4944309,66.8734065 87.7277642,65.9357642 C87.4075203,65.5440569 86.9279268,65.3656016 86.3771951,65.4339756" id="Fill-42" fill="#84511E"></path><path d="M66.3428943,67.7584309 C65.9756585,67.6525772 65.5931382,67.8646098 65.4876098,68.2312764 C63.757935,74.2392439 56.2146016,86.0040407 45.5167154,92.175748 C45.186065,92.3664797 45.0727317,92.7890813 45.2634634,93.1196504 C45.3913496,93.341439 45.6237073,93.4654228 45.8626504,93.4654228 C45.9798049,93.4654228 46.0985041,93.4356667 46.2072846,93.3729024 C52.6131382,89.677374 57.329561,84.4569675 60.1580976,80.7282683 C63.9247642,75.763065 66.0669593,71.2146911 66.8157398,68.6137154 C66.9213496,68.2469675 66.7097236,67.8640407 66.3428943,67.7584309" id="Fill-44" fill="#84511E"></path><path d="M55.0882114,21.572187 C53.7511382,18.5010488 51.9986992,16.1545447 49.8796748,14.598122 C47.3369919,12.730561 44.4057724,12.1072276 41.4020325,12.795439 C37.8042276,13.6198293 34.7207317,16.0473089 32.7196748,19.6307236 C30.7066667,23.235439 29.934878,27.7952764 30.5463415,32.4704797 C30.5958537,32.8488537 30.9427642,33.1164146 31.3212195,33.0660081 C31.6995935,33.0165772 31.9663415,32.6696667 31.916748,32.2912114 C31.3435772,27.9086098 32.0573171,23.6516992 33.9264228,20.304626 C35.7343902,17.0669024 38.4989431,14.8785285 41.7107317,14.1425935 C44.3109756,13.5469024 46.8525203,14.0895854 49.0614634,15.7120244 C50.9812195,17.122187 52.5826016,19.2794228 53.8209756,22.1238943 C55.200813,25.2933252 56.0834146,29.2269024 56.4443089,33.815439 C56.7634146,37.8721057 56.0417886,42.5172276 54.5139837,46.2411301 C52.8518699,50.2920244 50.4688618,52.749748 47.8036585,53.1615366 C45.5234959,53.5137317 43.0847967,52.6002358 40.7509756,50.5190976 C38.1768293,48.2237317 35.870813,44.6059268 34.0821138,40.0565772 C33.942439,39.701374 33.5412195,39.5267398 33.1860976,39.6664146 C32.8308943,39.8060081 32.6562602,40.2071463 32.795935,40.5623496 C34.6633333,45.3122683 37.0960976,49.1119431 39.8311382,51.5506423 C42.0986992,53.5725122 44.4956911,54.6182033 46.8315447,54.6182033 C47.2278862,54.6182033 47.6229268,54.5880407 48.0147967,54.5274715 C51.1773171,54.0388537 53.9395122,51.2823496 55.7926016,46.7656829 C57.3987805,42.8510488 58.1574797,37.9693415 57.8221138,33.707065 C57.449187,28.9653577 56.5294309,24.8825935 55.0882114,21.572187" id="Fill-46" fill="#84511E"></path><path d="M47.5793171,30.3713252 C47.4113496,30.028561 46.9972846,29.886935 46.6546016,30.0549024 C46.3119187,30.2229512 46.1702927,30.6370163 46.3381789,30.9796179 C47.6442764,33.6441707 49.2098862,36.255065 50.9959837,38.7483171 C50.3114309,39.1616504 48.7856585,39.8814878 47.4616748,40.4370163 C47.1098049,40.5846585 46.9441951,40.9896179 47.0918374,41.3416504 C47.202813,41.606122 47.4592358,41.7653902 47.7293984,41.7653902 C47.8184228,41.7653902 47.9091545,41.7481545 47.9963902,41.7114065 C48.0381789,41.6940081 49.0308618,41.2768537 50.0589919,40.7894553 C52.2281789,39.761 52.4672033,39.424252 52.5680976,39.0606748 C52.632,38.8305935 52.5889919,38.5896992 52.4500488,38.3998618 C50.570374,35.8314878 48.9316748,33.1303496 47.5793171,30.3713252" id="Fill-48" fill="#84511E"></path><path d="M42.2443496,33.4976016 C41.940122,33.2667886 41.506626,33.3264634 41.2761382,33.6303659 C40.7945935,34.2649187 40.0908537,34.6667073 39.3936992,34.7052439 C38.6823171,34.7429675 37.9871951,34.413374 37.3295528,33.7207724 C37.0665447,33.4440244 36.6293089,33.4328862 36.3524797,33.6955691 C36.075813,33.9584146 36.0644309,34.395813 36.3272764,34.672561 C37.420122,35.823374 38.5095528,36.0903659 39.2847561,36.0903659 C39.3486585,36.0903659 39.4105285,36.0884959 39.4699593,36.0851626 C40.5667886,36.0245935 41.6535366,35.4193089 42.3770325,34.4658943 C42.6077642,34.1619106 42.5483333,33.7283333 42.2443496,33.4976016" id="Fill-50" fill="#84511E"></path><path d="M55.9600488,29.8042114 C55.9565528,29.8041301 55.9531382,29.8041301 55.9496423,29.8041301 C55.5727317,29.8041301 55.264439,30.1069756 55.2589106,30.4850244 C55.2504553,31.0579512 54.7758211,31.6403089 54.104439,31.9012846 C53.7263089,32.0481951 52.7462276,32.2829106 51.8105366,31.2907154 C51.548748,31.0132358 51.1114309,31.0002276 50.833626,31.2621789 C50.5559837,31.5239675 50.5432195,31.9612846 50.8050894,32.2390081 C51.5367967,33.0149431 52.4492358,33.4225041 53.3859837,33.4225041 C53.792,33.4225041 54.202813,33.3459187 54.6050894,33.1894959 C55.806065,32.7226667 56.6241951,31.6439675 56.6408618,30.5053496 C56.6463902,30.1237236 56.3415935,29.8097398 55.9600488,29.8042114" id="Fill-52" fill="#84511E"></path><path d="M34.5808699,38.4440081 C34.2364797,38.2789675 33.8239593,38.4244959 33.659,38.7684797 C33.2086748,39.7082358 32.2644472,40.1588862 31.1335528,39.9731138 C29.6933902,39.7370163 28.1125772,38.4582358 27.8276179,36.1331951 C27.6070488,34.3331951 28.0553415,33.1146585 29.0575366,32.790187 C30.1297317,32.4431138 31.5511138,33.1573415 32.2269675,34.3820569 C32.4113577,34.716122 32.8316016,34.8375041 33.1659919,34.6531951 C33.5000569,34.4687236 33.621439,34.0483984 33.4371301,33.7141707 C32.4408699,31.9090488 30.3303821,30.9255528 28.6319268,31.4753089 C27.8327398,31.7340081 27.2075366,32.296935 26.8236341,33.1032764 C26.4226585,33.9453902 26.2989187,35.0213252 26.4558293,36.3014065 C26.8278618,39.3366098 28.9609512,41.0175854 30.9099756,41.3370163 C31.1544472,41.3770976 31.3945285,41.3966911 31.6289187,41.3966911 C33.0676179,41.3966911 34.286561,40.6572602 34.9053415,39.365878 C35.0703821,39.0216504 34.9250163,38.6088862 34.5808699,38.4440081" id="Fill-54" fill="#84511E"></path><path d="M49.8194553,43.9380813 C49.499374,43.7301138 49.0714878,43.8208455 48.8632764,44.1406016 C48.2744959,45.0460488 47.1246585,45.5819024 45.7779919,45.5819024 C45.755065,45.5819024 45.7319756,45.5817398 45.7088049,45.5814146 C43.9389675,45.5574309 42.3284797,44.638813 41.4009187,43.1241789 C41.2014878,42.7985691 40.7762033,42.6965366 40.4506748,42.8958049 C40.1252276,43.0951545 40.0229512,43.5205203 40.2222195,43.8460488 C41.3990488,45.7675935 43.4431138,46.9329593 45.6901057,46.9634472 C45.719374,46.9638537 45.7484797,46.9640163 45.7776667,46.9640163 C47.5944146,46.9640163 49.1765285,46.1941789 50.0219756,44.8942602 C50.2300244,44.5742602 50.139374,44.1462114 49.8194553,43.9380813" id="Fill-56" fill="#84511E"></path><path d="M33.2818862,39.8534309 C32.9083089,39.9319675 32.6692033,40.2983902 32.7477398,40.6718049 C34.0867642,47.0424553 34.7490407,51.4357073 34.1713171,55.0393659 C33.8768455,56.8765203 33.2524553,58.4676585 32.2622927,59.9037561 C31.2328618,61.3968455 29.7750569,62.7767642 27.8057073,64.1222927 C18.4851382,70.490748 16.0261951,79.7096911 20.497252,91.523187 C20.6018049,91.7996098 20.8646504,91.9697724 21.1436748,91.9697724 C21.2248943,91.9697724 21.3076585,91.9553821 21.3881463,91.9248943 C21.7451382,91.7897724 21.9249756,91.3909106 21.7897724,91.034 C19.5340813,85.0738374 19.1206667,79.786439 20.5610732,75.3185528 C21.8154634,71.4274146 24.5152195,68.0444878 28.5853008,65.2635122 C32.7379837,62.4263577 34.8816423,59.3405854 35.5361138,55.2581463 C36.1475772,51.4431057 35.4726179,46.9167642 34.1002602,40.3875772 C34.0218862,40.0141626 33.6551382,39.7750569 33.2818862,39.8534309" id="Fill-58" fill="#84511E"></path></g></g></g></g></g></svg> 