<?xml version="1.0" encoding="UTF-8"?> <svg xmlns="http://www.w3.org/2000/svg" xmlns:xlink="http://www.w3.org/1999/xlink" width="130px" height="104px" viewBox="0 0 130 104" version="1.1"><title>Group 37</title><g id="Learts" stroke="none" stroke-width="1" fill="none" fill-rule="evenodd"><g id="01--Baby-Carrier" transform="translate(-896.000000, -3663.000000)"><g id="Group-20" transform="translate(0.000000, 3584.000000)"><g id="Group-18-Copy-2" transform="translate(869.000000, 79.000000)"><g id="Group-37" transform="translate(27.000000, 0.000000)"><path d="M25.0583125,0.290795343 C19.1563762,-0.0200257353 15.8754694,5.06558701 15.8754694,5.06558701 C15.8754694,5.06558701 12.9281654,4.77941176e-05 8.65823897,4.77941176e-05 C3.99910907,4.77941176e-05 0.170003676,2.77497426 0.348753676,9.80963113 C0.59521201,19.5080135 13.640935,27.5579767 16.7325772,27.2267635 C20.1608493,26.8595453 32.4052243,17.1320086 31.3024547,6.65744975 C30.8128836,2.00485172 27.3846115,0.413148284 25.0583125,0.290795343" id="Fill-1" fill="#E5BA93"></path><path d="M55.8142574,52.1346679 C55.1432279,52.1346679 54.5993309,52.734962 54.5993309,53.4754522 C54.5993309,54.2157831 55.1432279,54.8162365 55.8142574,54.8162365 C56.4852868,54.8162365 57.0291838,54.2157831 57.0291838,53.4754522 C57.0291838,52.734962 56.4852868,52.1346679 55.8142574,52.1346679" id="Fill-3" fill="#A83636"></path><path d="M55.8142574,54.0993248 C55.5442206,54.0993248 55.3160833,53.8135159 55.3160833,53.4754522 C55.3160833,53.1372292 55.5442206,52.8515797 55.8142574,52.8515797 C56.0841348,52.8515797 56.3122721,53.1372292 56.3122721,53.4754522 C56.3122721,53.8135159 56.0841348,54.0993248 55.8142574,54.0993248 M55.8142574,51.4177561 C54.7489265,51.4177561 53.8822598,52.3406605 53.8822598,53.4754522 C53.8822598,54.6099252 54.7489265,55.5331483 55.8142574,55.5331483 C56.8795882,55.5331483 57.7460956,54.6099252 57.7460956,53.4754522 C57.7460956,52.3406605 56.8795882,51.4177561 55.8142574,51.4177561" id="Fill-5" fill="#84511E"></path><path d="M85.1116532,52.1346679 C84.4406238,52.1346679 83.8965674,52.734962 83.8965674,53.4754522 C83.8965674,54.2157831 84.4406238,54.8162365 85.1116532,54.8162365 C85.7826826,54.8162365 86.3265797,54.2157831 86.3265797,53.4754522 C86.3265797,52.734962 85.7826826,52.1346679 85.1116532,52.1346679" id="Fill-7" fill="#A83636"></path><path d="M85.1116532,54.0993248 C84.8416164,54.0993248 84.6134792,53.8135159 84.6134792,53.4754522 C84.6134792,53.1372292 84.8416164,52.8515797 85.1116532,52.8515797 C85.3815306,52.8515797 85.6096679,53.1372292 85.6096679,53.4754522 C85.6096679,53.8135159 85.3815306,54.0993248 85.1116532,54.0993248 M85.1116532,51.4177561 C84.0463223,51.4177561 83.1796556,52.3406605 83.1796556,53.4754522 C83.1796556,54.6099252 84.0463223,55.5331483 85.1116532,55.5331483 C86.1769841,55.5331483 87.0434914,54.6099252 87.0434914,53.4754522 C87.0434914,52.3406605 86.1769841,51.4177561 85.1116532,51.4177561" id="Fill-9" fill="#84511E"></path><path d="M72.919326,5.83940564 C71.3934191,5.6184375 69.8743627,6.00525123 68.6398407,6.92751838 C67.4053186,7.84994485 66.6038113,9.19789828 66.3833211,10.7230086 C66.2010662,11.9811091 66.5198529,13.2347488 67.280576,14.2532414 C68.0414583,15.2712561 69.1533088,15.9325674 70.4114093,16.1145037 C71.4565074,16.2658517 72.4965074,16.000913 73.3416667,15.3693934 C74.1869853,14.7377145 74.7356618,13.8149694 74.8868505,12.7705086 C74.9435662,12.3787561 74.6719363,12.0150429 74.2800245,11.9583272 C73.88875,11.9014522 73.5247181,12.1734007 73.4678431,12.5651532 C73.3716176,13.2304473 73.021924,13.8184743 72.4832843,14.2207414 C71.9449632,14.6231679 71.2823775,14.7914032 70.6166054,14.6954963 C69.7376716,14.568364 68.9608578,14.1063542 68.4292279,13.3950184 C67.897598,12.683364 67.6750368,11.8074571 67.8023284,10.928364 C67.9680147,9.78226103 68.5702206,8.76934436 69.4979044,8.07632966 C70.4259069,7.38299632 71.5683456,7.09240809 72.7138113,7.2585723 C74.1939951,7.47268995 75.5018015,8.25045956 76.3969853,9.44849877 C77.2921691,10.646538 77.6671936,12.1214645 77.453076,13.6013297 C77.1534069,15.670815 75.4420588,17.273511 73.4601961,19.1291973 C73.1721569,19.3987561 72.8798162,19.6726164 72.5866789,19.95269 C72.3003922,20.2262316 72.2900368,20.6797978 72.5635784,20.9660846 C72.7042525,21.1136091 72.8930392,21.1880086 73.0819853,21.1880086 C73.260098,21.1880086 73.4382108,21.1220527 73.5771324,20.9895037 C73.8666054,20.7127757 74.1554412,20.4424203 74.4401348,20.1757292 C76.5282598,18.2204718 78.5005637,16.3737071 78.8720833,13.806685 C79.1411642,11.9476532 78.6700735,10.0951532 77.5457966,8.59043505 C76.4213603,7.08539828 74.7783578,6.10848652 72.919326,5.83940564" id="Fill-11" fill="#84511E"></path><path d="M28.9232157,49.6372978 C26.8687059,49.0607414 24.614576,49.4762316 23.0400784,50.722065 C21.5665858,51.8882414 20.8018799,53.6515257 20.8871127,55.6875551 C21.0387794,59.3191115 23.7638407,63.0691973 28.6788284,63.2090748 L28.9047353,63.2156066 C29.4553235,63.2318566 29.9866348,63.2471507 30.4930931,63.2471507 C30.7980196,63.2471507 31.0938652,63.2415748 31.3793554,63.2272365 C31.7747721,63.207163 32.0792206,62.8703738 32.0591471,62.4747978 C32.0392328,62.0793811 31.6976642,61.7747733 31.3068676,61.7951654 C30.6049314,61.8306924 29.7992819,61.8074326 28.9463162,61.7824203 L28.7197721,61.7758885 C24.6818064,61.660864 22.4436078,58.5958272 22.3196618,55.6274939 C22.2357034,53.6220527 23.149049,52.4644792 23.9298456,51.8465012 C25.1506667,50.8805821 26.9153848,50.5630699 28.5354461,51.0179105 C29.492125,51.2865135 30.4137549,51.7877145 31.2750049,52.5076532 C31.5789755,52.76144 32.0309485,52.7212929 32.2848946,52.4173223 C32.5388407,52.113511 32.498375,51.6613787 32.194723,51.4074326 C31.1768676,50.5566973 30.0761691,49.9611826 28.9232157,49.6372978" id="Fill-13" fill="#84511E"></path><path d="M112.84795,54.3018922 C111.665842,54.495777 110.505719,54.9655931 109.400241,55.6984363 C109.070303,55.917174 108.980131,56.3621373 109.198869,56.6922353 C109.417607,57.0223333 109.862729,57.112027 110.192509,56.8936078 C111.127839,56.2735588 112.099494,55.8776642 113.08007,55.7167574 C114.740756,55.4448088 116.459114,55.9554093 117.565388,57.0505319 C118.27306,57.7510343 119.052423,59.0029216 118.747018,60.9868554 C118.294567,63.9230074 115.731369,66.7189632 111.704874,66.3882279 L111.482153,66.3699069 C110.70757,66.3061814 109.976001,66.2461201 109.329825,66.1511691 C108.936161,66.0944534 108.573881,66.3646495 108.516528,66.7562426 C108.458857,67.1479951 108.72969,67.5121863 109.121442,67.5696985 C109.812705,67.6713407 110.566737,67.7333137 111.36458,67.798951 L111.586663,67.8171127 C111.852876,67.8392574 112.113832,67.8499314 112.369371,67.8499314 C116.818526,67.8499314 119.640768,64.6024804 120.164114,61.2049559 C120.474298,59.1910711 119.909531,57.3537059 118.574163,56.0315613 C117.147668,54.6189265 114.952325,53.9558627 112.84795,54.3018922" id="Fill-15" fill="#84511E"></path><path d="M31.6427488,98.3011091 C31.8398199,95.197837 33.85944,94.3603248 33.1944645,93.7444179 C32.7260821,93.3107659 32.2584963,94.8282292 28.9826875,95.3947488 C25.874636,95.9322733 24.3275404,92.9562929 23.7857145,93.5473468 C23.1718787,94.2169424 25.6049179,95.8298346 25.6327978,98.4489522 C25.6627488,101.210337 23.4014498,102.72079 23.9827855,103.350239 C24.5833983,104.000717 26.2906042,101.603364 28.3138885,101.470656 C31.7496483,101.245227 33.2430551,103.745018 33.6870625,103.301011 C34.2535821,102.734491 31.4571483,101.226109 31.6427488,98.3011091" id="Fill-17" fill="#FFFFFF"></path><path d="M10.7255098,77.8009694 C7.78872059,75.6002096 9.07151471,71.9148051 8.13873284,71.9283096 C7.0820049,71.9434816 7.6599951,75.290185 5.4662451,77.4053934 C3.15348775,79.6354669 0.0693333333,78.9282733 0.00114705882,79.9228689 C-0.0695882353,80.950761 3.32220098,80.4807855 5.05011765,82.0866679 C7.98435784,84.8141189 7.06161275,88.0739963 7.79190686,88.0953364 C8.72373284,88.1221091 7.76705392,84.5512512 10.3903137,82.372636 C13.1736838,80.0613125 15.4950441,81.1016311 15.4851981,80.0471336 C15.4779975,79.304413 13.8206569,80.1205772 10.7255098,77.8009694" id="Fill-19" fill="#E5BA93"></path><path d="M125.103429,18.9771801 C122.16664,16.7764203 123.449434,13.0910159 122.516652,13.1045204 C121.459924,13.1196924 122.037914,16.4663958 119.844164,18.5816042 C117.531407,20.8116777 114.447252,20.1044841 114.379066,21.0990797 C114.308331,22.1269718 117.70012,21.6569963 119.428037,23.2628787 C122.362277,25.9903297 121.439532,29.2502071 122.169826,29.2715472 C123.101652,29.2983199 122.144973,25.727462 124.768233,23.5488468 C127.551603,21.2375233 129.872963,22.2778419 129.863117,21.2233444 C129.855917,20.4806238 128.198576,21.296788 125.103429,18.9771801" id="Fill-21" fill="#E5BA93"></path><path d="M101.604352,37.5148297 C95.8314596,29.9007488 87.4056752,24.2643885 78.4874522,22.0510429 C71.1803689,20.2374154 60.0543762,19.8580895 48.548739,28.3523787 C41.1092659,33.8448787 39.3824645,36.8433223 36.9922806,40.9932855 L36.8702463,41.2051728 C36.648163,41.5902341 36.7805527,42.0823542 37.165614,42.3041189 C37.5509939,42.5263615 38.043114,42.3938125 38.2648787,42.0089105 L38.3870723,41.7967047 C40.6797561,37.8160919 42.3361409,34.9400012 49.50494,29.64744 C60.5068272,21.5246703 71.1277953,21.8828076 78.0998419,23.613114 C86.6674154,25.7396336 94.7669252,31.161239 100.321717,38.48744 C102.839511,41.8081752 104.530786,45.2483958 105.977036,49.9908468 C106.08282,50.3376728 106.401766,50.56119 106.746521,50.56119 C106.824425,50.56119 106.903445,50.5497194 106.981668,50.5259816 C107.406876,50.3961409 107.646484,49.9465576 107.516643,49.52119 C106.011766,44.5866066 104.243543,40.9959939 101.604352,37.5148297" id="Fill-23" fill="#FFFFFF"></path><path d="M100.70775,36.3314951 C99.786598,35.6083701 98.8372475,34.8030392 97.9188039,34.0246324 C95.3642083,31.8582843 92.9512426,29.8123775 90.9016716,29.2302451 C88.7318186,28.6144975 88.0121985,30.0105637 87.4337304,31.1327696 C86.92775,32.1143015 86.4045637,33.1292892 84.9489142,33.7286275 C82.4374926,34.7635294 80.2225539,32.1469608 77.9878603,29.1364093 C76.8987917,27.6694485 76.2978603,26.8947059 75.5960833,26.6939706 C74.8605319,26.4835172 74.3891225,26.7157966 74.1237059,26.9479167 C73.2624559,27.7013113 73.4987181,29.3191422 73.8257892,31.5581373 C74.1641716,33.8737623 74.6272966,37.0452206 73.242701,37.6233701 C70.7597966,38.6593873 68.0140245,33.9825735 66.0082647,30.5675245 C64.3608015,27.7624877 63.3587181,26.0699387 62.1046005,26.1494363 C60.2084485,26.2695588 59.3451275,28.2418627 58.5836078,29.9820466 C58.0730074,31.148223 57.4931054,32.4719608 56.8722598,32.4104657 C55.5660466,32.2847672 54.8488162,30.7381495 53.4769657,27.5319608 C53.3020392,27.1233211 52.8291961,26.9337377 52.4203971,27.1086642 C52.0117574,27.2835907 51.822174,27.7565931 51.9971005,28.1650735 C53.4463775,31.552402 54.4038529,33.7899632 56.7178848,34.0126838 C58.501402,34.1839461 59.3283995,32.2944853 60.0582157,30.6272672 C60.6499069,29.2756495 61.2610343,27.8787868 62.1444289,27.7618505 C62.6518431,28.0309314 63.7864755,29.9630882 64.6201642,31.3827328 C66.6440858,34.8282108 69.3235833,39.3914338 72.5030074,39.3907966 C72.9465368,39.3907966 73.4004216,39.3020588 73.8629093,39.1088113 C76.400777,38.0490564 75.8562426,34.3211152 75.4186078,31.3255392 C75.268375,30.2989216 75.049,28.7957966 75.1691225,28.2558824 C75.4777132,28.4555025 76.1778971,29.398799 76.6951887,30.0957966 C78.3698946,32.3518382 80.765973,35.5796936 83.8015368,35.579375 C84.3663039,35.579375 84.953375,35.4676961 85.5619534,35.2172549 C87.5643676,34.3926471 88.3158505,32.9349265 88.8643676,31.8703922 C89.4492083,30.7359191 89.5868554,30.5304044 90.4619657,30.7787745 C92.1760221,31.2654779 94.5663652,33.2922672 96.877848,35.2523039 C97.8076029,36.0405882 98.7687426,36.8554779 99.7136324,37.597402 C100.063645,37.8720588 100.569147,37.8110417 100.843804,37.4616667 C101.118142,37.1118137 101.057284,36.6059926 100.70775,36.3314951" id="Fill-25" fill="#FFFFFF"></path><path d="M42.9140515,61.1263983 C40.2753382,63.1520723 39.7781201,66.9333836 41.8037941,69.5722561 C43.8293088,72.2111287 47.6106201,72.7081875 50.2494926,70.6825135 C52.8883652,68.6569988 53.3855833,64.8756875 51.3599093,62.236815 C49.3343946,59.5977831 45.552924,59.1007243 42.9140515,61.1263983" id="Fill-27" fill="#E5BA93"></path><path d="M90.8525392,61.1263983 C88.213826,63.1520723 87.7166078,66.9333836 89.7422819,69.5722561 C91.7677966,72.2111287 95.5491078,72.7081875 98.1881397,70.6825135 C100.826853,68.6569988 101.324071,64.8756875 99.2985564,62.236815 C97.2728824,59.5977831 93.4914118,59.1007243 90.8525392,61.1263983" id="Fill-29" fill="#E5BA93"></path><path d="M92.9192684,65.3130515 C92.5781777,65.1115196 92.1389498,65.2246324 91.9374179,65.5655637 C87.1795135,73.6187132 78.4228346,78.2996691 69.0953346,77.780625 C60.4342439,77.2991789 52.7755551,72.4620956 48.6087047,64.8411642 C48.4188027,64.493701 47.983239,64.36625 47.6357757,64.556152 C47.2883125,64.7460539 47.1607022,65.181777 47.3507635,65.5290809 C49.461511,69.3895711 52.5308493,72.6889583 56.227087,75.0706985 C60.0389865,77.5269975 64.4612169,78.9590686 69.0156777,79.2122181 C69.5125772,79.2397794 70.0072463,79.2534804 70.5004816,79.2534804 C79.8048811,79.2534804 88.3934841,74.3823039 93.1717806,66.294902 C93.3733125,65.9539706 93.2601998,65.514424 92.9192684,65.3130515" id="Fill-31" fill="#84511E"></path><path d="M108.889991,61.7090404 C108.319489,71.9731458 103.786058,81.4008542 96.1246605,88.2554865 C88.4634228,95.1098002 78.592185,98.5720061 68.3272831,98.0002292 C58.0630184,97.429886 48.6351507,92.8964547 41.7806777,85.2350576 C34.9260453,77.5738199 31.4654326,67.7016262 32.035935,57.4375208 C32.6062782,47.1732561 37.1397096,37.7453885 44.8011066,30.8909154 C51.9176507,24.5239424 60.940065,21.085315 70.4141336,21.085315 C71.1393297,21.085315 71.8686679,21.1055478 72.5984841,21.1461728 C82.8629081,21.7166752 92.2906164,26.2499473 99.1450895,33.9113444 C105.999563,41.5725821 109.460494,51.4446164 108.889991,61.7090404 L108.889991,61.7090404 Z M72.6781409,19.7144203 C62.0300895,19.1222512 51.7917929,22.7125453 43.845065,29.8223983 C35.898337,36.9324105 31.1958738,46.7112463 30.6041826,57.357864 C30.0126507,68.0046409 33.6023076,78.2443713 40.7121605,86.1910993 C47.8220135,94.1378272 57.6010086,98.8401311 68.2476262,99.4318223 C69.005163,99.4740404 69.7606287,99.4949105 70.5135453,99.4949105 C80.3396973,99.4949105 89.699538,95.9278762 97.0808615,89.3240037 C105.027589,82.2141507 109.729734,72.4351556 110.321585,61.7883787 C110.913276,51.141761 107.323619,40.9020306 100.213607,32.9553027 C93.1037537,25.0085748 83.3247586,20.3061115 72.6781409,19.7144203 L72.6781409,19.7144203 Z" id="Fill-33" fill="#84511E"></path><path d="M123.245815,84.9867353 C119.498278,84.7895049 117.414933,88.0186348 117.414933,88.0186348 C117.414933,88.0186348 115.543634,84.80225 112.832273,84.80225 C109.873658,84.80225 107.442371,86.5641005 107.555962,91.0309387 C107.712408,97.1892108 115.996085,102.300792 117.959148,102.090498 C120.136011,101.857262 127.910999,95.6805098 127.210815,89.0293211 C126.899994,86.0751667 124.722812,85.0644804 123.245815,84.9867353" id="Fill-35" fill="#FFFFFF"></path></g></g></g></g></g></svg> 