<?xml version="1.0" encoding="UTF-8"?> <svg xmlns="http://www.w3.org/2000/svg" xmlns:xlink="http://www.w3.org/1999/xlink" width="110px" height="123px" viewBox="0 0 110 123" version="1.1"><title>Group 22</title><defs><polygon id="path-1" points="0.0983053143 0.0667291102 30.5131284 0.0667291102 30.5131284 97.9996462 0.0983053143 97.9996462"></polygon></defs><g id="Learts" stroke="none" stroke-width="1" fill="none" fill-rule="evenodd"><g id="01--Baby-Carrier" transform="translate(-1486.000000, -3653.000000)"><g id="Group-20" transform="translate(0.000000, 3584.000000)"><g id="Group-18-Copy" transform="translate(1449.000000, 69.000000)"><g id="Group-22" transform="translate(37.000000, 0.000000)"><path d="M77.0375533,3.33160246 C77.0375533,3.33160246 71.8604904,-2.75235929 68.347403,1.52291393 C64.4064877,6.31888388 76.2979085,12.5400451 76.2979085,12.5400451 C76.2979085,12.5400451 89.6103128,6.12713525 85.9125396,1.85171175 C81.9668156,-2.70998224 77.0375533,3.33160246 77.0375533,3.33160246" id="Fill-1" fill="#FFFFFF"></path><path d="M80.8384139,20.1787787 C78.1052445,17.739694 74.1000123,16.3408005 69.8501352,16.3408005 C66.9737555,16.3408005 64.1738648,16.966388 61.7534139,18.1500902 C58.214179,19.8810874 56.1515287,22.3998169 55.0402582,24.2190246 C53.929138,22.3998169 51.8664877,19.8810874 48.3269522,18.1500902 C45.9066516,16.966388 43.1069112,16.3408005 40.2303811,16.3408005 C35.9805041,16.3408005 31.9755724,17.739694 29.2421025,20.1787787 C26.5538648,22.5777404 23.5447937,26.2024809 26.2001216,33.287112 C32.0104358,48.7895984 54.1235915,66.7977404 55.0402582,67.0662787 C55.9572254,66.7977404 78.0700806,48.7895984 83.8803948,33.287112 C86.535873,26.2024809 83.5266516,22.5777404 80.8384139,20.1787787" id="Fill-3" fill="#E5BA93"></path><path d="M33.2907336,57.932582 C32.7829604,57.2470355 32.2579057,56.5380464 31.5854331,55.7808197 C25.0103784,48.3737022 21.4347773,35.5774863 19.0687254,27.110041 C18.2936161,24.3361475 17.681403,22.1451639 17.1341079,20.7737705 C16.2766489,18.6247131 15.1178921,17.313429 13.6898456,16.8764344 C12.1723866,16.4123907 10.9069358,17.1269399 10.6550779,17.2841257 C10.578138,17.328306 10.5091626,17.3879645 10.4531107,17.4617486 C10.2974276,17.6667213 10.2914167,17.6748361 10.3282336,18.9380328 C10.3465669,19.5690301 10.3919495,20.6018579 10.5042036,21.9391393 C10.7016626,24.2912158 11.147974,28.0588661 12.1545041,32.6518169 C13.9301325,40.7551503 17.8289713,53.039235 26.3189577,65.542418 C26.4498456,65.734918 26.6626325,65.8386066 26.879026,65.8386066 C27.0097637,65.8386066 27.1420041,65.800888 27.2583156,65.7218443 C27.5672773,65.5120628 27.6476735,65.0915984 27.4378921,64.7824863 C12.4449822,42.702541 11.6933156,21.3930464 11.6670178,18.279235 C12.0139986,18.1312158 12.6259112,17.9597541 13.3104057,18.1749454 C14.3058156,18.4878142 15.1936298,19.5597131 15.8781243,21.2749317 C16.3985205,22.5790027 17.0018675,24.7390301 17.7661571,27.4740027 C20.1655697,36.0612158 23.7918128,49.0382104 30.5740943,56.6785519 C31.2067445,57.3911475 31.7137664,58.0756421 32.2039577,58.7374454 C32.7795041,59.5145082 33.3230423,60.2484426 33.988903,60.9129508 C34.2533839,61.1768306 34.6815123,61.1766803 34.9452418,60.9120492 C35.2091216,60.6477186 35.208821,60.2197404 34.9443402,59.9558607 C34.3498593,59.3624317 33.835474,58.6680191 33.2907336,57.932582" id="Fill-5" fill="#84511E"></path><path d="M6.94448634,31.9116913 C5.81743716,23.0560902 6.37735519,16.8153934 6.5501694,15.2871148 C6.91368033,15.164041 7.56616667,15.0280437 8.23758743,15.3071011 C9.18460929,15.7005164 9.9540082,16.8304208 10.4629836,18.5749426 C10.5674235,18.9333443 10.9426557,19.1395191 11.3015082,19.0346284 C11.6602104,18.9300383 11.8659344,18.5546557 11.7614945,18.1961038 C11.1210301,16.0010628 10.1020273,14.6056257 8.7327377,14.0484126 C7.25044262,13.4453661 5.90354372,14.069 5.63936339,14.2052978 C5.55205464,14.2461721 5.47286066,14.3062814 5.4080929,14.3836721 C5.26413115,14.5563361 5.24549727,14.5784262 5.12332514,15.976418 C5.05945902,16.7074973 4.97455464,17.9042732 4.93337978,19.4535902 C4.86094809,22.1756393 4.91264208,26.5302568 5.56978689,31.8189727 C6.72899454,41.1497377 10.0374098,55.2371011 19.2151967,69.359929 C19.3450328,69.5593415 19.5617268,69.6678388 19.7830792,69.6678388 C19.9091585,69.6678388 20.037041,69.6325246 20.1509481,69.5584399 C20.4641175,69.3549699 20.552929,68.9361585 20.3493087,68.6229891 C11.3737896,54.811377 8.10564754,41.0358306 6.94448634,31.9116913" id="Fill-7" fill="#84511E"></path><path d="M23.0298825,83.8428265 C20.287847,80.9620888 17.1798962,77.6972527 14.9197869,73.9228402 C-1.31888798,46.8037828 1.33734153,25.2362691 1.80063388,22.3142063 C2.44831148,22.1020205 3.9774918,21.8116926 5.07343443,23.2834686 C5.29643989,23.5831134 5.72021038,23.6448757 6.01970492,23.4218702 C6.31934973,23.1987145 6.3812623,22.7750943 6.15825683,22.4755997 C4.53305191,20.2936325 2.05940437,20.6777309 0.943325137,21.1976762 C0.848953552,21.2364467 0.762546448,21.2968566 0.692218579,21.3771025 C0.563434426,21.5239194 0.524513661,21.5680997 0.364472678,22.7869658 C0.280920765,23.4215697 0.165210383,24.4674713 0.0872185792,25.8457773 C-0.049079235,28.2543566 -0.0929590164,32.1586052 0.471918033,37.0808046 C1.46567486,45.7415014 4.57768306,59.283974 13.7596776,74.6175533 C16.0967268,78.52075 19.2596776,81.8435915 22.0502514,84.7752719 C25.4201284,88.3155587 28.3304699,91.3730178 28.8377923,94.3511325 C29.7069727,99.451556 27.9783798,108.063113 24.0956202,117.97769 C23.9594727,118.325422 24.1309344,118.717786 24.4786667,118.853933 C24.5596639,118.885641 24.6430656,118.900668 24.7251148,118.900668 C24.995306,118.900668 25.2504699,118.737622 25.3550601,118.470887 C29.3831339,108.184835 31.0935437,99.5382637 30.1710164,94.1239194 C29.5945683,90.7394658 26.5524372,87.5434549 23.0298825,83.8428265" id="Fill-9" fill="#84511E"></path><path d="M41.3646885,54.7150669 C39.8875027,53.2028675 38.4922158,51.774821 37.1932541,50.3451216 C33.5658087,46.3529631 31.857653,42.270791 30.6105355,39.2902719 C29.1832404,35.879821 28.0561913,33.1863238 24.9575574,34.2197527 C24.6114781,34.3351626 24.1357131,34.632403 23.8356175,35.3929358 C22.5872978,38.5548347 25.149306,47.9607363 28.1221612,53.4430041 C28.300235,53.7716516 28.7104809,53.8932227 29.0389781,53.7151489 C29.3671749,53.5372254 29.4890464,53.126679 29.311123,52.7984822 C26.3654672,47.3664057 24.118582,38.3587281 25.0935546,35.8895888 C25.1425437,35.7650123 25.2457814,35.5493702 25.3855355,35.5026352 C27.2014372,34.897485 27.825071,36.1373893 29.3628169,39.8124713 C30.6481038,42.8837555 32.4081038,47.0900533 36.1922842,51.2547254 C37.507776,52.7024577 38.9113279,54.1392199 40.3973798,55.6601352 C44.4594153,59.8178948 48.6594016,64.1169112 51.3644699,68.9934276 C56.0104672,77.3687555 55.4337186,95.6792473 55.0518743,107.795627 L55.0219699,108.753919 C54.729388,118.117294 54.7471202,121.974657 54.8611776,122.462294 L56.1780219,122.154384 C56.1780219,122.154384 56.181929,122.164753 56.1861366,122.194958 C56.1781721,122.139206 56.0014508,120.710258 56.3736776,108.796146 L56.4037322,107.838154 C56.8132268,94.8401216 57.3738962,77.0387555 52.5471202,68.3373347 C49.7538415,63.3019795 45.4890874,58.9365423 41.3646885,54.7150669" id="Fill-11" fill="#84511E"></path><path d="M99.202418,17.2841107 C98.9502596,17.1267746 97.6851093,16.4117746 96.1676503,16.8765697 C94.7396038,17.3134139 93.5806967,18.6248484 92.723388,20.7737555 C92.1760929,22.1451489 91.5638798,24.3361325 90.7889208,27.110026 C88.4228689,35.5774713 84.8472678,48.3736872 78.2720628,55.7808046 C77.5995902,56.5380314 77.0745355,57.2471708 76.5667623,57.9325669 C76.0221721,58.6680041 75.5076366,59.3624167 74.9131557,59.9558456 C74.6488251,60.2195751 74.6483743,60.6477036 74.9121038,60.9120342 C75.1759836,61.1763648 75.6044126,61.1769658 75.8685929,60.9129358 C76.5344536,60.2484276 77.0779918,59.5144932 77.6536885,58.7375806 C78.1437295,58.075627 78.6507514,57.3912828 79.2834016,56.6785369 C86.0658333,49.0381954 89.6919262,36.0612008 92.0914891,27.4739877 C92.8556284,24.739015 93.4591257,22.5789877 93.9795219,21.2749167 C94.6638661,19.5598484 95.5516803,18.4877992 96.5470902,18.1749303 C97.2324863,17.9592883 97.8451503,18.1315014 98.1907787,18.2789194 C98.1643306,21.3927309 97.4126639,42.702526 82.4197541,64.7824713 C82.2099727,65.0915833 82.2903689,65.5121981 82.5993306,65.7218292 C82.7156421,65.800873 82.8478825,65.8385915 82.9786202,65.8385915 C83.1951639,65.8385915 83.4079508,65.734903 83.5386885,65.542403 C92.0285246,53.0392199 95.9273634,40.7551352 97.7031421,32.6518019 C98.7096721,28.0588511 99.1559836,24.2912008 99.3534426,21.9392746 C99.4656967,20.6018429 99.5110792,19.569015 99.5294126,18.9380178 C99.5662295,17.674821 99.5600683,17.6667063 99.4045355,17.4617336 C99.3484836,17.3879495 99.2795082,17.3281407 99.202418,17.2841107" id="Fill-13" fill="#84511E"></path><path d="M104.734201,15.9765533 C104.612029,14.5785615 104.593395,14.5564713 104.449433,14.3838074 C104.384665,14.3062664 104.305321,14.2460068 104.217862,14.2051325 C103.953381,14.0685342 102.606482,13.4456516 101.124638,14.0483975 C99.7554986,14.6056107 98.7364959,16.0010478 98.0961817,18.1960888 C97.9917418,18.5546407 98.1974658,18.9300232 98.556168,19.0346134 C98.9151708,19.1398046 99.2901025,18.9333292 99.3946926,18.5749276 C99.9035178,16.8304057 100.672917,15.7005014 101.619788,15.3070861 C102.292411,15.0280287 102.945649,15.1641762 103.307357,15.2869495 C103.480321,16.8144768 104.04069,23.053821 102.91304,31.913179 C101.751578,41.0370178 98.4834358,54.8119631 89.5082172,68.622974 C89.304597,68.9361434 89.3935587,69.3549549 89.7067281,69.5584249 C89.8206352,69.6325096 89.9482172,69.6678238 90.074597,69.6678238 C90.2957992,69.6678238 90.5126434,69.5591762 90.6423292,69.3599139 C99.8201161,55.2370861 103.128531,41.149873 104.287889,31.8191079 C104.945034,26.5303921 104.996578,22.1756243 104.924296,19.4537254 C104.882971,17.9042582 104.798217,16.7074822 104.734201,15.9765533" id="Fill-15" fill="#84511E"></path><g id="Group-19" transform="translate(79.344262, 20.727336)"><mask id="mask-2" fill="white"><use xlink:href="#path-1"></use></mask><g id="Clip-18"></g><path d="M30.1489262,2.05965984 C29.988735,0.840793716 29.9531202,0.800219945 29.8210301,0.649646175 C29.7507022,0.569550546 29.6642951,0.50914071 29.5699235,0.470370219 C28.4541448,-0.0497254098 25.980347,-0.43382377 24.3549918,1.74829372 C24.1319863,2.04778825 24.1940492,2.47140847 24.4935437,2.69456421 C24.7930383,2.91787022 25.2166585,2.8556571 25.4398142,2.55616257 C26.5255383,1.09821175 28.0634344,1.38207787 28.7132158,1.59005601 C29.1775601,4.52353962 31.8258251,26.0871462 15.5934617,53.1955342 C13.3333525,56.9697964 10.2254016,60.2349331 7.48336612,63.1156708 C3.96081148,66.8161489 0.918830601,70.0120096 0.342081967,73.3966134 C-0.574434426,78.7765451 1.11178142,87.3610533 5.09011475,97.5686626 C5.1942541,97.8361489 5.44971858,97.9996462 5.72021038,97.9996462 C5.80195902,97.9996462 5.88506011,97.9847691 5.96560656,97.9532117 C6.31378962,97.8176653 6.48585246,97.4256025 6.35015574,97.0777199 C2.51593443,87.2396325 0.811986339,78.6910396 1.67545628,73.6238265 C2.18277869,70.6457117 5.09312022,67.5882527 8.46284699,64.0481161 C11.253571,61.1162855 14.4165219,57.7935943 16.753571,53.8902473 C25.9355656,38.556668 29.0475738,25.0141954 30.0413306,16.3534986 C30.6062077,11.4312992 30.5623279,7.52705055 30.4260301,5.11832104 C30.3480383,3.7401653 30.2323279,2.69426366 30.1489262,2.05965984" id="Fill-17" fill="#84511E" mask="url(#mask-2)"></path></g><path d="M84.8998934,34.2197828 C81.8008087,33.1863538 80.6742104,35.8798511 79.2470656,39.2903019 C77.9999481,42.270821 76.2917923,46.3528429 72.664347,50.3451516 C71.365235,51.7750014 69.9697978,53.2031981 68.4924617,54.7153975 C64.3682131,58.9367227 60.103459,63.3020096 57.3103306,68.3373648 C55.9407404,70.8065041 54.9050574,74.2429522 54.2321339,78.5514358 C54.174429,78.9203566 54.426888,79.2662855 54.795959,79.3238402 C54.831123,79.3294003 54.8664372,79.3321052 54.901,79.3321052 C55.2284454,79.3321052 55.5162186,79.0937719 55.5685137,78.7601653 C56.2167923,74.6090178 57.2007814,71.3231434 58.4929809,68.9933074 C61.1978989,64.1170915 65.3981858,59.8180751 69.4599208,55.6604658 C70.946123,54.1394003 72.3496749,52.7024877 73.6651667,51.2546052 C77.4494973,47.0900833 79.2096475,42.8836352 80.4947842,39.8123511 C82.0325301,36.1372691 82.6569153,34.8972145 84.4719153,35.5026653 C84.6116694,35.5494003 84.7150574,35.7650423 84.7640464,35.8894686 C85.7388689,38.3587582 83.4922842,47.3662855 80.5464781,52.7985123 C80.3685546,53.1265587 80.490276,53.5372555 80.818623,53.7150287 C81.1471202,53.8935533 81.5575164,53.7713811 81.7354399,53.4430342 C83.1900847,50.7606571 84.5814645,47.0517637 85.4574071,43.5219959 C86.0013962,41.3298101 86.7982951,37.3588402 86.0221339,35.3929658 C85.721888,34.6324331 85.246123,34.3351926 84.8998934,34.2197828" id="Fill-20" fill="#84511E"></path></g></g></g></g></g></svg> 